<?xml version="1.0" encoding="utf-8"?>
<!-- Generator: Adobe Illustrator 15.1.0, SVG Export Plug-In . SVG Version: 6.00 Build 0)  -->
<!DOCTYPE svg PUBLIC "-//W3C//DTD SVG 1.1//EN" "http://www.w3.org/Graphics/SVG/1.1/DTD/svg11.dtd">
<svg version="1.1" id="Слой_1" xmlns="http://www.w3.org/2000/svg" xmlns:xlink="http://www.w3.org/1999/xlink" x="0px" y="0px"
	 width="80px" height="80px" viewBox="0 0 80 80" enable-background="new 0 0 80 80" xml:space="preserve">
<linearGradient id="SVGID_1_" gradientUnits="userSpaceOnUse" x1="2" y1="2.0005" x2="76" y2="76.0005">
	<stop  offset="0" style="stop-color:#000000;stop-opacity:0.74"/>
	<stop  offset="1" style="stop-color:#000000"/>
</linearGradient>
<path fill="url(#SVGID_1_)" d="M80,60.156C80,71.115,71.115,80,60.156,80H19.842C8.883,80,0,71.115,0,60.156V19.843
	C0,8.884,8.883,0,19.842,0h40.314C71.115,0,80,8.884,80,19.843V60.156z"/>
<g>
	<path fill="#FFFFFF" d="M20.521,28.574v2.334h-6.757V21.91h2.742v6.664H20.521z"/>
	<path fill="#FFFFFF" d="M29.494,21.91v2.188h-4.72v1.114h4.278v2.096h-4.278v1.325h4.845v2.274h-7.587V21.91H29.494z"/>
	<path fill="#FFFFFF" d="M39.344,21.91v8.998h-2.637l-2.248-3.83l-0.178-0.336c-0.172-0.316-0.336-0.657-0.495-1.021
		c0.057,0.707,0.085,1.396,0.085,2.063v3.125h-2.656V21.91h2.723l1.951,3.375c0.408,0.703,0.705,1.266,0.89,1.688
		c-0.018-0.264-0.031-0.51-0.04-0.738c-0.035-0.83-0.053-1.274-0.053-1.331V21.91H39.344z"/>
	<path fill="#FFFFFF" d="M45.548,21.687c1.173,0,2.164,0.355,2.974,1.067c0.996,0.879,1.496,2.101,1.496,3.665
		c0,1.31-0.371,2.396-1.115,3.257c-0.844,0.971-1.979,1.457-3.406,1.457c-1.49,0-2.666-0.506-3.527-1.517
		c-0.716-0.839-1.074-1.902-1.074-3.19c0-1.529,0.463-2.718,1.385-3.566C43.135,22.077,44.225,21.687,45.548,21.687z M45.501,23.934
		c-0.603,0-1.058,0.229-1.364,0.686c-0.308,0.453-0.461,1.042-0.461,1.768c0,0.879,0.195,1.542,0.586,1.99
		c0.295,0.339,0.703,0.508,1.227,0.508c1.164,0,1.748-0.861,1.748-2.584c0-0.726-0.15-1.297-0.448-1.714
		C46.475,24.151,46.046,23.934,45.501,23.934z"/>
	<path fill="#FFFFFF" d="M59.029,21.91l-2.775,8.998H53.15l-2.69-8.998h2.795l0.455,1.602c0.531,1.873,0.872,3.422,1.021,4.647
		c0.146-1.072,0.49-2.616,1.035-4.634l0.436-1.615H59.029z"/>
	<path fill="#FFFFFF" d="M64.08,21.687c1.173,0,2.164,0.355,2.973,1.067c0.997,0.879,1.496,2.101,1.496,3.665
		c0,1.31-0.371,2.396-1.113,3.257c-0.845,0.971-1.979,1.457-3.408,1.457c-1.489,0-2.666-0.506-3.526-1.517
		c-0.716-0.839-1.073-1.902-1.073-3.19c0-1.529,0.461-2.718,1.385-3.566C61.667,22.077,62.757,21.687,64.08,21.687z M64.033,23.934
		c-0.602,0-1.057,0.229-1.364,0.686c-0.308,0.453-0.461,1.042-0.461,1.768c0,0.879,0.194,1.542,0.586,1.99
		c0.295,0.339,0.703,0.508,1.228,0.508c1.164,0,1.746-0.861,1.746-2.584c0-0.726-0.149-1.297-0.447-1.714
		C65.007,24.151,64.578,23.934,64.033,23.934z"/>
</g>
<g>
	<path fill="#FFFFFF" d="M16.507,35.66v8.998h-2.742V35.66H16.507z"/>
	<path fill="#FFFFFF" d="M25.495,35.66v8.998h-2.637l-2.248-3.83l-0.178-0.336c-0.171-0.316-0.336-0.657-0.494-1.021
		c0.057,0.707,0.086,1.396,0.086,2.063v3.125h-2.657V35.66h2.722l1.951,3.375c0.409,0.703,0.706,1.266,0.89,1.688
		c-0.018-0.264-0.031-0.51-0.04-0.738c-0.035-0.83-0.053-1.274-0.053-1.331V35.66H25.495z"/>
	<path fill="#FFFFFF" d="M33.601,35.66v2.334h-2.518v6.664H28.34v-6.664h-2.531V35.66H33.601z"/>
	<path fill="#FFFFFF" d="M41.383,35.66v2.188h-4.72v1.114h4.278v2.097h-4.278v1.324h4.845v2.273h-7.587V35.66H41.383z"/>
	<path fill="#FFFFFF" d="M48.85,42.324v2.334h-6.758V35.66h2.742v6.664H48.85z"/>
	<path fill="#FFFFFF" d="M60.154,35.66v8.998h-2.741v-3.553h-2.624v3.553h-2.742V35.66h2.742v3.111h2.624V35.66H60.154z"/>
	<path fill="#FFFFFF" d="M61.009,35.66h3.777c0.825,0,1.468,0.056,1.925,0.165c0.628,0.158,1.143,0.508,1.543,1.048
		c0.398,0.536,0.6,1.191,0.6,1.965c0,0.896-0.293,1.635-0.877,2.215c-0.338,0.338-0.746,0.566-1.226,0.686
		c-0.364,0.093-0.796,0.14-1.292,0.14h-1.708v2.781h-2.742V35.66z M63.751,37.849v1.925h1.317c0.41,0,0.697-0.076,0.865-0.23
		c0.174-0.167,0.264-0.402,0.264-0.705c0-0.659-0.395-0.989-1.182-0.989L63.751,37.849L63.751,37.849z"/>
</g>
<g>
	<path fill="#FFFFFF" d="M13.68,49.91h3.586c1.191,0,2.129,0.311,2.813,0.932c0.41,0.371,0.723,0.834,0.938,1.389
		c0.195,0.504,0.293,1.058,0.293,1.658c0,1.32-0.381,2.344-1.143,3.07c-0.434,0.418-0.93,0.688-1.488,0.809
		c-0.441,0.094-0.928,0.142-1.459,0.142h-3.54V49.91z M16.117,51.932v3.955h0.943c0.563,0,0.986-0.15,1.271-0.451
		c0.336-0.358,0.504-0.856,0.504-1.494c0-0.793-0.258-1.362-0.773-1.711c-0.301-0.199-0.711-0.299-1.23-0.299H16.117z"/>
	<path fill="#FFFFFF" d="M28.367,49.91v1.945h-4.195v0.99h3.803v1.862h-3.803v1.179h4.307v2.02h-6.744V49.91H28.367z"/>
	<path fill="#FFFFFF" d="M35.003,55.834v2.074h-6.006V49.91h2.438v5.924H35.003z"/>
	<path fill="#FFFFFF" d="M41.452,55.834v2.074h-6.006V49.91h2.438v5.924H41.452z"/>
	<path fill="#FFFFFF" d="M48.912,49.91l2.947,7.998h-2.49l-0.387-1.137h-2.578l-0.387,1.137h-2.484l2.953-7.998H48.912z
		 M48.443,55.049l-0.24-0.732c-0.227-0.707-0.391-1.323-0.492-1.852c-0.105,0.449-0.289,1.08-0.551,1.893l-0.223,0.691H48.443z"/>
	<path fill="#FFFFFF" d="M51.861,49.91h3.357c0.734,0,1.305,0.049,1.711,0.146c0.559,0.141,1.016,0.45,1.371,0.932
		c0.355,0.477,0.533,1.059,0.533,1.746c0,0.797-0.26,1.453-0.779,1.969c-0.301,0.301-0.664,0.504-1.09,0.609
		c-0.324,0.082-0.707,0.123-1.148,0.123H54.3v2.473h-2.438V49.91z M54.3,51.855v1.711h1.173c0.362,0,0.618-0.068,0.768-0.205
		c0.156-0.148,0.234-0.357,0.234-0.627c0-0.586-0.351-0.879-1.05-0.879H54.3z"/>
	<path fill="#FFFFFF" d="M66.591,54.756c-0.059,0.855-0.354,1.588-0.891,2.197c-0.681,0.77-1.625,1.154-2.837,1.154
		c-1.288,0-2.307-0.457-3.053-1.371c-0.633-0.777-0.949-1.725-0.949-2.842c0-1.146,0.354-2.115,1.062-2.912
		c0.75-0.848,1.75-1.271,3-1.271c1.117,0,2.035,0.389,2.754,1.166c0.527,0.566,0.814,1.23,0.861,1.992h-2.379
		c-0.052-0.301-0.15-0.543-0.3-0.727c-0.233-0.289-0.563-0.435-0.989-0.435c-0.565,0-0.976,0.252-1.226,0.756
		c-0.207,0.406-0.311,0.886-0.311,1.437c0,0.586,0.105,1.07,0.316,1.453c0.272,0.504,0.68,0.756,1.219,0.756
		c0.738,0,1.168-0.451,1.289-1.354L66.591,54.756L66.591,54.756z"/>
</g>
</svg>
