<?xml version="1.0" encoding="utf-8"?>
<!-- Generator: Adobe Illustrator 15.1.0, SVG Export Plug-In . SVG Version: 6.00 Build 0)  -->
<!DOCTYPE svg PUBLIC "-//W3C//DTD SVG 1.1//EN" "http://www.w3.org/Graphics/SVG/1.1/DTD/svg11.dtd">
<svg version="1.1" id="Слой_1" xmlns="http://www.w3.org/2000/svg" xmlns:xlink="http://www.w3.org/1999/xlink" x="0px" y="0px"
	 width="79px" height="78px" viewBox="0 0 79 78" enable-background="new 0 0 79 78" xml:space="preserve">
<path fill="none" d="M30.125,5.125C16.409,5.125,5.25,16.284,5.25,30c0,13.716,11.159,24.875,24.875,24.875
	C43.841,54.875,55,43.716,55,30C55,16.284,43.841,5.125,30.125,5.125z"/>
<path d="M30.125,0.125C13.652,0.125,0.25,13.527,0.25,30c0,16.473,13.402,29.875,29.875,29.875C46.598,59.875,60,46.473,60,30
	C60,13.527,46.598,0.125,30.125,0.125z M30.125,56.375C15.582,56.375,3.75,44.543,3.75,30c0-14.543,11.832-26.375,26.375-26.375
	C44.668,3.625,56.5,15.457,56.5,30C56.5,44.543,44.668,56.375,30.125,56.375z"/>
<g>
	<path d="M60.913,36.025c-0.226,1.158-0.513,2.295-0.863,3.404c8.499,1.159,15.075,8.446,15.075,17.258
		c0,9.615-7.822,17.438-17.438,17.438c-8.621,0-15.781-6.295-17.174-14.525c-1.103,0.388-2.233,0.714-3.387,0.978
		c1.831,9.69,10.346,17.048,20.561,17.048c11.545,0,20.938-9.393,20.938-20.938C78.625,46.242,70.928,37.584,60.913,36.025z"/>
</g>
</svg>
