<?xml version="1.0" encoding="utf-8"?>
<!-- Generator: Adobe Illustrator 15.1.0, SVG Export Plug-In . SVG Version: 6.00 Build 0)  -->
<!DOCTYPE svg PUBLIC "-//W3C//DTD SVG 1.1//EN" "http://www.w3.org/Graphics/SVG/1.1/DTD/svg11.dtd">
<svg version="1.1" id="Слой_1" xmlns="http://www.w3.org/2000/svg" xmlns:xlink="http://www.w3.org/1999/xlink" x="0px" y="0px"
	 width="50px" height="41px" viewBox="0 0 50 41" enable-background="new 0 0 50 41" xml:space="preserve">
<g>
	<path d="M29.331-0.417H10.169C6.216-0.417,3,2.8,3,6.753v1.664H1.417c-0.829,0-1.5,0.671-1.5,1.5s0.671,1.5,1.5,1.5H3v6.667H1.417
		c-0.829,0-1.5,0.671-1.5,1.5s0.671,1.5,1.5,1.5H3V27.5H1.417c-0.829,0-1.5,0.672-1.5,1.5s0.671,1.5,1.5,1.5H3v3.414
		c0,3.953,3.216,7.169,7.169,7.169h19.162c3.953,0,7.169-3.216,7.169-7.169V6.753C36.5,2.8,33.284-0.417,29.331-0.417z M6,33.914
		V30.5h2.167c0.829,0,1.5-0.672,1.5-1.5s-0.671-1.5-1.5-1.5H6v-6.416h2.167c0.829,0,1.5-0.672,1.5-1.5s-0.671-1.5-1.5-1.5H6v-6.667
		h2.167c0.829,0,1.5-0.671,1.5-1.5s-0.671-1.5-1.5-1.5H6V6.753c0-2.299,1.871-4.169,4.169-4.169h1.581v35.5h-1.581
		C7.871,38.083,6,36.213,6,33.914z M33.5,33.914c0,2.299-1.87,4.169-4.169,4.169H13.75v-35.5h15.581
		c2.299,0,4.169,1.871,4.169,4.169V33.914z"/>
	<path d="M49.849,3.389c-0.044-0.142-1.128-3.473-5.516-3.473c-0.1,0-0.197,0.011-0.292,0.029c-0.094-0.019-0.191-0.029-0.291-0.029
		c-4.388,0-5.472,3.331-5.516,3.473c-0.045,0.144-0.067,0.293-0.067,0.444v31.333c0,0.408,0.166,0.798,0.46,1.081l4.163,4.007
		c0.046,0.066,0.071,0.142,0.129,0.202c0.295,0.306,0.688,0.46,1.081,0.46c0.014,0,0.027-0.008,0.041-0.008
		c0.015,0,0.028,0.008,0.042,0.008c0.394,0,0.786-0.154,1.081-0.46c0.058-0.061,0.083-0.136,0.129-0.202l4.163-4.007
		c0.294-0.283,0.46-0.673,0.46-1.081V3.833C49.916,3.683,49.894,3.533,49.849,3.389z M43.75,2.917c0.1,0,0.197-0.011,0.291-0.029
		c0.095,0.019,0.192,0.029,0.292,0.029c1.737,0,2.389,0.864,2.583,1.219v2.781h-5.749V4.135C41.358,3.785,42.011,2.917,43.75,2.917z
		 M44.041,37.295l-2.874-2.767V8.917h5.749v25.612L44.041,37.295z"/>
</g>
</svg>
