<?xml version="1.0" encoding="utf-8"?>
<!-- Generator: Adobe Illustrator 15.1.0, SVG Export Plug-In . SVG Version: 6.00 Build 0)  -->
<!DOCTYPE svg PUBLIC "-//W3C//DTD SVG 1.1//EN" "http://www.w3.org/Graphics/SVG/1.1/DTD/svg11.dtd">
<svg version="1.1" id="Слой_1" xmlns="http://www.w3.org/2000/svg" xmlns:xlink="http://www.w3.org/1999/xlink" x="0px" y="0px"
	 width="98.333px" height="63.833px" viewBox="0 0 98.333 63.833" enable-background="new 0 0 98.333 63.833" xml:space="preserve">
<path fill="#37ACFF" d="M0,32.5c0,0.277,0.112,0.528,0.294,0.708l10.832,10.834c0.195,0.195,0.451,0.293,0.707,0.293
	s0.512-0.098,0.707-0.293c0.391-0.391,0.391-1.023,0-1.414L3.414,33.5H34.5v1.461c0,15.92,12.952,28.872,28.872,28.872h6.091
	c15.92,0,28.871-12.952,28.871-28.872v-6.09C98.333,12.952,85.382,0,69.462,0h-6.091C47.452,0,34.5,12.952,34.5,28.872V31.5H3.499
	l8.857-8.442c0.399-0.381,0.414-1.014,0.033-1.414c-0.381-0.401-1.013-0.415-1.414-0.034L0.31,31.777v0.005
	C0.12,31.964,0,32.217,0,32.5z M37.5,33.5h26.833c0.551,0,1-0.447,1-1c0-0.552-0.449-1-1-1H37.5v-2.628
	C37.5,14.606,49.106,3,63.372,3h6.091c14.266,0,25.871,11.606,25.871,25.872v6.09c0,14.266-11.605,25.872-25.871,25.872h-6.091
	c-14.266,0-25.872-11.606-25.872-25.872V33.5z"/>
</svg>
