<?xml version="1.0" encoding="utf-8"?>
<!-- Generator: Adobe Illustrator 15.1.0, SVG Export Plug-In . SVG Version: 6.00 Build 0)  -->
<!DOCTYPE svg PUBLIC "-//W3C//DTD SVG 1.1//EN" "http://www.w3.org/Graphics/SVG/1.1/DTD/svg11.dtd">
<svg version="1.1" id="Слой_1" xmlns="http://www.w3.org/2000/svg" xmlns:xlink="http://www.w3.org/1999/xlink" x="0px" y="0px"
	 width="106px" height="77px" viewBox="0 0 106 77" enable-background="new 0 0 106 77" xml:space="preserve">
<g>
	<path d="M105.989,44.015c-0.133-1.403-1.34-3.683-2.096-4.992l-3.613-8.046c-0.027-0.062-0.058-0.122-0.09-0.181
		c-0.142-0.257-3.57-6.295-12.94-6.295H81.5V19c0-1.381-1.119-2.5-2.5-2.5H22c-1.381,0-2.5,1.119-2.5,2.5v9.75h-5.25
		c-1.381,0-2.5,1.119-2.5,2.5s1.119,2.5,2.5,2.5H22c1.381,0,2.5-1.119,2.5-2.5V21.5h52v23.75c0,1.381,1.119,2.5,2.5,2.5h22.249
		c0.037,1.159,0.007,2.364-0.061,4.678c-0.021,0.754-0.047,1.515-0.072,2.262c-0.06,1.779-0.116,3.46-0.116,4.811
		c0,2.34-0.998,3.059-1.39,3.25h-3.564C94.532,58.81,90.718,56,86.25,56c-4.276,0-7.958,2.573-9.593,6.25H49.843
		C48.208,58.573,44.526,56,40.25,56c-4.079,0-7.614,2.343-9.352,5.75H24.25V53.5c0-1.381-1.119-2.5-2.5-2.5h-7.5
		c-1.381,0-2.5,1.119-2.5,2.5s1.119,2.5,2.5,2.5h5v8.25c0,1.381,1.119,2.5,2.5,2.5h8.013C29.897,72.424,34.545,77,40.25,77
		c5.537,0,10.075-4.311,10.462-9.75h25.076C76.175,72.689,80.713,77,86.25,77c5.366,0,9.798-4.048,10.418-9.25H100
		c0.176,0,0.352-0.019,0.523-0.056C102.418,67.289,106,65.054,106,59.5c0-1.267,0.055-2.906,0.113-4.644
		c0.025-0.754,0.051-1.522,0.073-2.284C106.313,48.187,106.311,47.427,105.989,44.015z M40.25,72c-3.033,0-5.5-2.468-5.5-5.5
		s2.467-5.5,5.5-5.5s5.5,2.468,5.5,5.5S43.283,72,40.25,72z M86.25,72c-3.032,0-5.5-2.468-5.5-5.5s2.468-5.5,5.5-5.5
		s5.5,2.468,5.5,5.5S89.282,72,86.25,72z M81.5,29.5h5.75c5.948,0,8.234,3.202,8.528,3.655l3.607,8.034
		c0.035,0.079,0.075,0.157,0.119,0.232c0.248,0.428,0.499,0.892,0.724,1.329H81.5V29.5z"/>
	<path d="M54.008,49.457c-0.99,0.962-1.013,2.545-0.051,3.535c0.49,0.504,1.142,0.758,1.793,0.758c0.628,0,1.256-0.235,1.742-0.707
		l8.75-8.5c0.004-0.004,0.007-0.009,0.012-0.014c0.06-0.059,0.108-0.127,0.162-0.191c0.049-0.059,0.104-0.114,0.146-0.178
		c0.038-0.056,0.066-0.118,0.101-0.178c0.044-0.078,0.093-0.155,0.128-0.237c0.027-0.062,0.043-0.127,0.065-0.191
		c0.029-0.087,0.061-0.172,0.081-0.261c0.014-0.064,0.019-0.131,0.027-0.197c0.014-0.095,0.026-0.189,0.029-0.285
		c0-0.021,0.006-0.04,0.006-0.061c0-0.05-0.012-0.097-0.015-0.146c-0.005-0.092-0.012-0.183-0.027-0.274
		c-0.013-0.074-0.031-0.146-0.05-0.218c-0.021-0.08-0.045-0.159-0.074-0.238c-0.028-0.074-0.061-0.146-0.095-0.216
		c-0.034-0.071-0.071-0.141-0.113-0.208c-0.043-0.071-0.091-0.138-0.141-0.204c-0.026-0.035-0.045-0.073-0.073-0.106l-8-9.5
		c-0.889-1.056-2.467-1.191-3.522-0.302c-1.056,0.889-1.191,2.466-0.302,3.522l4.539,5.39H7c-1.381,0-2.5,1.119-2.5,2.5
		s1.119,2.5,2.5,2.5h51.339L54.008,49.457z"/>
</g>
<path fill="#FF1F1F" d="M28.435,25L45.323,8.337c0.983-0.97,0.994-2.553,0.024-3.536c-0.97-0.982-2.552-0.993-3.536-0.024
	l-16.937,16.71L7.938,4.778C6.956,3.809,5.374,3.819,4.403,4.802c-0.97,0.983-0.959,2.566,0.024,3.536L21.315,25L4.427,41.663
	c-0.983,0.97-0.994,2.553-0.024,3.535c0.489,0.496,1.134,0.744,1.78,0.744c0.634,0,1.269-0.24,1.756-0.721l16.937-16.71
	l16.937,16.71c0.487,0.48,1.122,0.721,1.756,0.721c0.646,0,1.291-0.248,1.78-0.744c0.97-0.982,0.959-2.565-0.024-3.535L28.435,25z"
	/>
</svg>
