<?xml version="1.0" encoding="utf-8"?>
<!-- Generator: Adobe Illustrator 15.1.0, SVG Export Plug-In . SVG Version: 6.00 Build 0)  -->
<!DOCTYPE svg PUBLIC "-//W3C//DTD SVG 1.1//EN" "http://www.w3.org/Graphics/SVG/1.1/DTD/svg11.dtd">
<svg version="1.1" id="Слой_1" xmlns="http://www.w3.org/2000/svg" xmlns:xlink="http://www.w3.org/1999/xlink" x="0px" y="0px"
	 width="113px" height="100px" viewBox="0 0 113 100" enable-background="new 0 0 113 100" xml:space="preserve">
<g>
	<path d="M101.068,98.822H11.326c-3.91,0-7.05-1.565-8.615-4.294c-1.565-2.729-1.33-6.229,0.645-9.604L49.617,5.863
		c1.956-3.342,4.859-5.259,7.965-5.259c3.176,0,6.098,1.985,8.016,5.445l43.685,78.829c1.887,3.405,2.047,6.923,0.44,9.651
		C108.115,97.258,104.961,98.822,101.068,98.822z M57.582,7.604c-0.435,0-1.198,0.555-1.923,1.794L9.397,88.459
		c-0.732,1.251-0.836,2.2-0.614,2.587s1.094,0.776,2.543,0.776h89.742c1.568,0,2.393-0.455,2.623-0.846
		c0.229-0.39,0.229-1.333-0.532-2.705L59.475,9.443C58.771,8.173,58.017,7.604,57.582,7.604z"/>
</g>
<g enable-background="new    ">
	<g>
		<path fill="#FF3737" d="M56.254,67.5c-1.657,0-3-1.343-3-3V35.167c0-1.657,1.343-3,3-3s3,1.343,3,3V64.5
			C59.254,66.157,57.911,67.5,56.254,67.5z"/>
	</g>
</g>
<g enable-background="new    ">
	<g>
		<circle fill="#FF3737" cx="56.254" cy="78.333" r="3.167"/>
	</g>
</g>
</svg>
