<svg xmlns:xlink="http://www.w3.org/1999/xlink" class="img-fluid" id="outputsvg" xmlns="http://www.w3.org/2000/svg" style="transform: matrix(1, 0, 0, 1, 0, 0); transform-origin: 50% 50%; cursor: move; max-height: 368.56px; transition: none 0s ease 0s;" width="82" height="84" viewBox="0 0 820 840"><g id="l7km9z9aqBPW6O85WnKVMbl" fill="rgb(0,0,0)" style="transform: none;"><g style="transform: none;"><path id="pMtFHJatn" d="M279 826 c-103 -27 -199 -111 -247 -214 -36 -77 -37 -199 -4 -284 60 -151 246 -258 398 -229 84 16 99 26 70 50 -10 8 -27 8 -66 0 -135 -29 -278 43 -348 176 -23 43 -27 62 -27 140 0 107 22 163 93 233 66 67 119 87 227 87 78 0 97 -4 140 -27 138 -72 208 -223 171 -368 -17 -64 -15 -80 10 -80 32 0 57 125 43 214 -35 216 -252 358 -460 302z"></path><path id="pQmosgmo9" d="M287 696 c-169 -61 -221 -273 -99 -408 44 -49 94 -75 158 -83 64 -8 129 12 129 40 0 15 -5 19 -20 16 -62 -11 -142 -5 -180 15 -118 62 -142 241 -43 330 46 43 87 56 154 52 118 -7 191 -86 187 -203 -1 -33 -3 -71 -5 -84 -1 -13 2 -25 7 -27 21 -7 36 14 47 67 38 184 -155 349 -335 285z"></path><path id="pEcKvZvpz" d="M308 564 c-57 -30 -77 -127 -37 -178 39 -50 105 -69 151 -45 16 9 24 7 43 -11 19 -17 24 -34 27 -91 4 -69 4 -69 78 -145 41 -41 83 -80 93 -85 25 -14 47 6 47 42 0 35 24 59 59 59 36 0 56 22 43 47 -6 10 -46 53 -90 96 -80 77 -80 77 -140 77 -56 0 -62 2 -82 30 -16 23 -19 34 -10 49 23 45 3 111 -46 150 -32 25 -96 27 -136 5z m101 -39 c32 -16 41 -33 41 -78 0 -31 0 -31 -33 1 -36 35 -55 40 -64 16 -3 -9 7 -28 28 -50 33 -34 33 -34 0 -34 -44 0 -66 13 -81 49 -15 37 2 79 40 98 32 16 35 16 69 -2z m281 -310 c58 -59 62 -65 39 -65 -17 0 -44 20 -89 65 -58 59 -62 65 -39 65 17 0 44 -20 89 -65z m-20 -125 c0 -22 -7 -18 -65 40 -50 50 -65 71 -65 93 0 28 3 27 65 -39 42 -46 64 -77 65 -94z"></path></g></g></svg>