<?xml version="1.0" encoding="utf-8"?>
<!-- Generator: Adobe Illustrator 15.1.0, SVG Export Plug-In . SVG Version: 6.00 Build 0)  -->
<!DOCTYPE svg PUBLIC "-//W3C//DTD SVG 1.1//EN" "http://www.w3.org/Graphics/SVG/1.1/DTD/svg11.dtd">
<svg version="1.1" id="Слой_1" xmlns="http://www.w3.org/2000/svg" xmlns:xlink="http://www.w3.org/1999/xlink" x="0px" y="0px"
	 width="83px" height="83px" viewBox="0 0 83 83" enable-background="new 0 0 83 83" xml:space="preserve">
<g>
	<path d="M80.972,17.2L66.054,3.028c-0.283-0.671-0.855-1.181-1.557-1.402c-0.393-0.242-0.845-0.376-1.313-0.376H28.669
		c-4.504,0-8.169,3.665-8.169,8.169v31.188C9.983,41.676,1.75,50.582,1.75,61.375c0,11.511,9.364,20.875,20.875,20.875
		c0.663,0,1.317-0.039,1.964-0.1c0.211,0.059,0.43,0.1,0.661,0.1h48.331c4.504,0,8.169-3.665,8.169-8.169V19.013
		C81.75,18.328,81.469,17.672,80.972,17.2z M66.25,10.11l8.041,7.64H66.25V10.11z M6.75,61.375c0-8.754,7.122-15.875,15.875-15.875
		S38.5,52.621,38.5,61.375S31.378,77.25,22.625,77.25S6.75,70.129,6.75,61.375z M73.581,77.25H36.146
		c3.985-3.399,6.689-8.259,7.247-13.75H68c1.381,0,2.5-1.119,2.5-2.5s-1.119-2.5-2.5-2.5H43.278
		c-0.474-3.417-1.771-6.567-3.694-9.25H69c1.381,0,2.5-1.119,2.5-2.5s-1.119-2.5-2.5-2.5H35.75c-0.341,0-0.667,0.069-0.963,0.193
		c-2.69-1.938-5.854-3.245-9.287-3.722V9.419c0-1.748,1.422-3.169,3.169-3.169H61.25v14c0,1.381,1.119,2.5,2.5,2.5h13v51.331
		C76.75,75.828,75.328,77.25,73.581,77.25z"/>
	<path d="M67.75,30.75H34.5c-1.381,0-2.5,1.119-2.5,2.5s1.119,2.5,2.5,2.5h33.25c1.381,0,2.5-1.119,2.5-2.5
		S69.131,30.75,67.75,30.75z"/>
</g>
<path fill="#FF3737" d="M28.117,60.375l16.254-16.254c1.172-1.171,1.172-3.071,0-4.242c-1.172-1.172-3.071-1.172-4.242,0
	L23.875,56.133L7.621,39.879c-1.171-1.172-3.071-1.172-4.242,0c-1.172,1.171-1.172,3.071,0,4.242l16.254,16.254L3.379,76.629
	c-1.172,1.171-1.172,3.071,0,4.242C3.964,81.457,4.732,81.75,5.5,81.75s1.536-0.293,2.121-0.879l16.254-16.254l16.254,16.254
	c0.585,0.586,1.354,0.879,2.121,0.879s1.535-0.293,2.121-0.879c1.172-1.171,1.172-3.071,0-4.242L28.117,60.375z"/>
</svg>
