<?xml version="1.0" encoding="utf-8"?>
<!-- Generator: Adobe Illustrator 15.1.0, SVG Export Plug-In . SVG Version: 6.00 Build 0)  -->
<!DOCTYPE svg PUBLIC "-//W3C//DTD SVG 1.1//EN" "http://www.w3.org/Graphics/SVG/1.1/DTD/svg11.dtd">
<svg version="1.1" id="Слой_1" xmlns="http://www.w3.org/2000/svg" xmlns:xlink="http://www.w3.org/1999/xlink" x="0px" y="0px"
	 width="70px" height="60px" viewBox="0 0 70 60" enable-background="new 0 0 70 60" xml:space="preserve">
<path d="M66.206,35.476c-1.381,0-2.5,1.119-2.5,2.5V50.95L40.35,26.513c-0.951-0.995-2.528-1.032-3.527-0.087L23.954,38.617
	L5.046,19.355c-0.968-0.986-2.551-1-3.536-0.033c-0.985,0.967-1,2.55-0.033,3.536l20.628,21.014
	c0.955,0.972,2.514,1.003,3.503,0.063l12.845-12.169L59.78,54.08H48.47c-1.381,0-2.5,1.119-2.5,2.5s1.119,2.5,2.5,2.5h17.736
	c1.381,0,2.5-1.119,2.5-2.5V37.976C68.706,36.595,67.587,35.476,66.206,35.476z"/>
<g enable-background="new    ">
	<g>
		<path fill="#FF3737" d="M62.158,2.471c-1.83-1.618-4.293-2.439-7.322-2.439c-2.891,0-5.275,0.812-7.088,2.413
			c-1.83,1.617-2.83,3.617-2.974,5.946l-0.058,0.938l6.304,0.782l0.192-0.895c0.262-1.213,0.726-2.11,1.381-2.665
			c0.649-0.551,1.451-0.818,2.45-0.818c1.034,0,1.815,0.248,2.387,0.757c0.545,0.487,0.799,1.022,0.799,1.685
			c0,0.461-0.144,0.875-0.43,1.256c-0.104,0.134-0.545,0.607-2.384,2.103c-1.542,1.253-2.555,2.376-3.096,3.433
			c-0.544,1.061-0.819,2.402-0.819,3.985c0,0.14,0.006,0.533,0.018,1.177l0.019,0.981h6.409l-0.018-1.018
			c-0.028-1.596,0.158-2.165,0.241-2.337c0.103-0.215,0.453-0.726,1.647-1.719c2.082-1.731,3.42-3.087,4.088-4.144
			c0.706-1.115,1.063-2.319,1.063-3.579C64.969,6.087,64.023,4.121,62.158,2.471z"/>
	</g>
</g>
<g>
	<circle fill="#FF3737" cx="55.025" cy="26.023" r="3.856"/>
</g>
</svg>
