<?xml version="1.0" encoding="utf-8"?>
<!-- Generator: Adobe Illustrator 15.1.0, SVG Export Plug-In . SVG Version: 6.00 Build 0)  -->
<!DOCTYPE svg PUBLIC "-//W3C//DTD SVG 1.1//EN" "http://www.w3.org/Graphics/SVG/1.1/DTD/svg11.dtd">
<svg version="1.1" id="Слой_1" xmlns="http://www.w3.org/2000/svg" xmlns:xlink="http://www.w3.org/1999/xlink" x="0px" y="0px"
	 width="66px" height="24px" viewBox="0 0 66 24" enable-background="new 0 0 66 24" xml:space="preserve">
<path fill="#37ACFF" d="M65.667,12c0-0.283-0.12-0.536-0.31-0.718v-0.005L54.691,1.11c-0.401-0.381-1.033-0.367-1.414,0.034
	c-0.381,0.4-0.366,1.033,0.033,1.414L62.168,11H1.334c-0.552,0-1,0.448-1,1c0,0.553,0.448,1,1,1h60.919l-9.126,9.127
	c-0.391,0.391-0.391,1.023,0,1.414c0.195,0.195,0.451,0.293,0.707,0.293s0.512-0.098,0.707-0.293l10.832-10.833
	C65.555,12.527,65.667,12.277,65.667,12z"/>
</svg>
