<?xml version="1.0" encoding="utf-8"?>
<!-- Generator: Adobe Illustrator 15.1.0, SVG Export Plug-In . SVG Version: 6.00 Build 0)  -->
<!DOCTYPE svg PUBLIC "-//W3C//DTD SVG 1.1//EN" "http://www.w3.org/Graphics/SVG/1.1/DTD/svg11.dtd">
<svg version="1.1" id="Слой_1" xmlns="http://www.w3.org/2000/svg" xmlns:xlink="http://www.w3.org/1999/xlink" x="0px" y="0px"
	 width="98.333px" height="63.833px" viewBox="0 0 98.333 63.833" enable-background="new 0 0 98.333 63.833" xml:space="preserve">
<path fill="#37ACFF" d="M98.024,31.782v-0.005L87.358,21.61c-0.401-0.381-1.033-0.367-1.414,0.034
	c-0.381,0.4-0.366,1.033,0.033,1.414l8.857,8.442H63.833v-2.628C63.833,12.952,50.881,0,34.962,0h-6.09C12.952,0,0,12.952,0,28.872
	v6.09c0,15.92,12.952,28.872,28.872,28.872h6.09c15.919,0,28.872-12.952,28.872-28.872V33.5h31.086l-9.126,9.127
	c-0.391,0.391-0.391,1.023,0,1.414c0.195,0.195,0.451,0.293,0.707,0.293s0.512-0.098,0.707-0.293L98.04,33.208
	c0.182-0.18,0.294-0.431,0.294-0.708C98.333,32.217,98.213,31.964,98.024,31.782z M60.833,34.961
	c0,14.266-11.606,25.872-25.872,25.872h-6.09C14.606,60.833,3,49.227,3,34.961v-6.09C3,14.606,14.606,3,28.872,3h6.09
	c14.266,0,25.872,11.606,25.872,25.872V31.5H34c-0.552,0-1,0.448-1,1c0,0.553,0.448,1,1,1h26.833V34.961z"/>
</svg>
