<?xml version="1.0" encoding="utf-8"?>
<!-- Generator: Adobe Illustrator 15.1.0, SVG Export Plug-In . SVG Version: 6.00 Build 0)  -->
<!DOCTYPE svg PUBLIC "-//W3C//DTD SVG 1.1//EN" "http://www.w3.org/Graphics/SVG/1.1/DTD/svg11.dtd">
<svg version="1.1" id="Слой_1" xmlns="http://www.w3.org/2000/svg" xmlns:xlink="http://www.w3.org/1999/xlink" x="0px" y="0px"
	 width="66px" height="24px" viewBox="0 0 66 24" enable-background="new 0 0 66 24" xml:space="preserve">
<path fill="#37ACFF" d="M0.628,12.708L11.46,23.541c0.195,0.195,0.451,0.293,0.707,0.293s0.512-0.098,0.707-0.293
	c0.391-0.391,0.391-1.023,0-1.414L3.748,13h60.919c0.552,0,1-0.447,1-1c0-0.552-0.448-1-1-1H3.833l8.857-8.442
	c0.399-0.381,0.414-1.014,0.033-1.414c-0.381-0.401-1.013-0.415-1.414-0.034L0.644,11.277v0.005c-0.189,0.182-0.31,0.435-0.31,0.718
	C0.334,12.277,0.446,12.527,0.628,12.708z"/>
</svg>
