<svg xmlns="http://www.w3.org/2000/svg" width="257" height="257" fill="currentColor" viewBox="0 0 257 257">
  <path fill="#38ACFF" d="M247.501 134.401l-.066 1.896a3.441 3.441 0 01-1.638-.571 3.07 3.07 0 01-1.085-1.302c-.252-.546-.365-1.198-.339-1.955.021-.592.141-1.119.36-1.582.224-.462.534-.853.93-1.174a3.972 3.972 0 011.422-.707 6.044 6.044 0 011.843-.196l.64.022a5.935 5.935 0 011.824.33 4.067 4.067 0 011.376.823c.373.352.655.766.846 1.243.19.476.276 1.004.256 1.584-.027.769-.189 1.414-.487 1.933a3.048 3.048 0 01-1.197 1.197 3.903 3.903 0 01-1.693.474l.066-1.903c.373-.008.69-.071.953-.189.266-.118.47-.303.61-.557.144-.249.223-.585.238-1.008a1.84 1.84 0 00-.149-.837 1.544 1.544 0 00-.518-.615 2.668 2.668 0 00-.901-.393 6.304 6.304 0 00-1.278-.159l-.653-.023c-.478-.016-.9.005-1.266.064-.362.06-.671.159-.925.298a1.539 1.539 0 00-.579.564c-.131.237-.202.525-.214.863-.014.398.038.728.156.99s.299.466.544.61c.245.148.553.241.924.28zM253.417 139.358l-.192 1.601-7.02 1.548 6.454 3.166-.192 1.601-8.779-4.417.155-1.286 9.574-2.213zm.104-.864l-.192 1.595-6.602-.499-2.609-.313.226-1.884 9.177 1.101zm-.967 8.048l-.192 1.601-9.176-1.101.227-1.891 2.609.313 6.532 1.078zM245.986 157.432l-.428-.09c-.688-.145-1.285-.368-1.792-.669a4.175 4.175 0 01-1.232-1.083 3.494 3.494 0 01-.619-1.402 3.94 3.94 0 01.024-1.623c.119-.568.33-1.066.632-1.495.302-.426.679-.77 1.133-1.033a4.163 4.163 0 011.566-.507c.586-.072 1.222-.035 1.91.11l.428.09c.692.146 1.289.369 1.792.67.508.301.918.662 1.232 1.083.313.425.521.892.626 1.403a4.01 4.01 0 01-.024 1.623 3.977 3.977 0 01-.633 1.495 3.466 3.466 0 01-1.139 1.032 4.106 4.106 0 01-1.565.5c-.582.077-1.219.042-1.911-.104zm-.032-1.972l.441.093c.48.101.912.147 1.295.136.382-.01.716-.074 1-.191.284-.118.514-.285.69-.504.18-.217.303-.483.369-.798a1.817 1.817 0 00-.016-.879 1.723 1.723 0 00-.429-.732 2.909 2.909 0 00-.84-.573 5.635 5.635 0 00-1.24-.397l-.441-.093a5.638 5.638 0 00-1.294-.136 2.87 2.87 0 00-1.007.19 1.755 1.755 0 00-.696.502c-.18.217-.303.483-.369.798-.066.315-.061.608.016.879s.222.516.436.734c.217.219.499.41.845.574.351.164.764.297 1.24.397zM248.671 164.131l-8.883-2.553.524-1.824 8.883 2.553-.524 1.824zm-.785 2.733l-1.434-.412 2.083-7.248 1.433.412-2.082 7.248zM240.612 169.548l.81-2.211 1.395.512-.811 2.211c-.125.341-.172.64-.139.895.037.257.138.472.304.646.166.174.377.307.631.4.258.095.517.133.776.116.259-.018.495-.109.709-.275.213-.165.383-.418.508-.76l.584-1.591-7.277-2.668.656-1.788 8.677 3.182-1.239 3.379c-.249.679-.586 1.216-1.01 1.611-.422.399-.894.65-1.418.751-.524.101-1.062.05-1.614-.153-.56-.205-.998-.512-1.312-.92-.315-.409-.494-.898-.537-1.468-.045-.566.057-1.189.307-1.869zM234.51 179.441l-1.355-.61 2.018-4.486 1.354.609-2.017 4.487zm8.837-.739l-8.429-3.79.78-1.737 8.43 3.79-.781 1.737zm-4.932 1.791l-1.32-.593 1.754-3.902 1.32.593-1.754 3.902zm3.172 2.123l-1.36-.612 2.015-4.481 1.36.612-2.015 4.481zM238.703 188.185l-8.157-4.344.892-1.675 8.158 4.344-.893 1.675zm-1.336 2.51l-1.317-.701 3.545-6.656 1.316.701-3.544 6.656zM233.18 191.099l-1.145 1.829c-.386.617-.821 1.084-1.303 1.4-.483.317-.985.48-1.505.489-.519.009-1.025-.14-1.517-.448a2.947 2.947 0 01-.894-.844 2.672 2.672 0 01-.422-1.096 3.234 3.234 0 01.069-1.259 4.65 4.65 0 01.595-1.358l1.806-2.884 7.834 4.904-1.014 1.62-6.575-4.116-.792 1.264c-.193.309-.295.6-.306.872a1.33 1.33 0 00.175.739c.128.225.309.41.542.556.223.14.456.213.701.222a1.24 1.24 0 00.713-.183c.23-.136.441-.358.634-.666l1.145-1.83 1.259.789zM222.954 202.701l1.465-1.868 1.037.798-1.231 1.568c-.217.276-.359.53-.428.761-.065.234-.063.448.005.642.069.199.204.377.404.534.226.178.443.278.651.301a.904.904 0 00.614-.155c.202-.127.412-.33.632-.61l.815-1.038-6.097-4.785 1.175-1.498 7.271 5.705-1.991 2.537a6.197 6.197 0 01-1.009 1.04 3.15 3.15 0 01-1.035.567 2.058 2.058 0 01-1.038.049c-.343-.07-.685-.239-1.024-.505a2.18 2.18 0 01-.668-.855c-.149-.332-.189-.705-.122-1.12.065-.412.271-.856.617-1.332l-.043-.736zm-3.14-2.569l1.736-2.212.71 1.501-1.278 1.628c-.206.263-.333.51-.381.742-.044.235-.024.449.06.644.084.195.221.367.41.516.213.167.427.275.641.325.211.053.42.034.626-.058.209-.088.414-.261.616-.517l1.132-1.443 1.021.817-1.411 1.798-.675.027c-.34.448-.698.743-1.073.884a1.836 1.836 0 01-1.091.105 2.339 2.339 0 01-.972-.457c-.466-.366-.78-.776-.94-1.229-.157-.452-.161-.936-.012-1.455.145-.515.439-1.053.881-1.616zM217.524 207.568l2.071 6.965-1.291 1.399-6.791-6.268 1.291-1.4 4.59 4.237-2.071-6.965 1.292-1.4 6.791 6.269-1.292 1.4-4.59-4.237zM205.558 217.302l-1.003-1.095 4.909-4.499 1.003 1.095-4.909 4.499zm4.493-4.117l-2.535-2.766 1.32-1.209 2.61 2.697-1.395 1.278zm-5.504 5.043l-2.417-2.882 1.287-1.179 2.539 2.77-1.409 1.291zm7.024 4.085l-1.008-1.1 3.281-3.006 1.008 1.1-3.281 3.006zm-1.001.918l-6.245-6.814 1.4-1.283 6.244 6.814-1.399 1.283zm4.455-4.083l-1.404 1.287-2.361-2.943a12.013 12.013 0 01-.965-1.354 7.831 7.831 0 01-.592-1.153 5.62 5.62 0 01-.316-.994 4.665 4.665 0 01-.098-.857c0-.264.015-.514.047-.749.034-.232.072-.453.114-.664l.805-.738 1.003 1.095-.313.288a2.547 2.547 0 00-.003.57 3 3 0 00.195.795c.112.31.291.668.537 1.075.243.408.573.875.99 1.4l2.361 2.942zM198.85 222.707l-.921-1.165 3.859-3.051.921 1.165-3.859 3.051zm8.182 3.42l-5.732-7.25 1.494-1.181 5.732 7.25-1.494 1.181zm-5.203-.685l-.897-1.135 3.356-2.654.897 1.135-3.356 2.654zm1.837 3.346l-.925-1.17 3.854-3.047.925 1.17-3.854 3.047zM193.203 230.701l-.247-.362c-.396-.58-.674-1.154-.832-1.723a4.146 4.146 0 01-.14-1.634c.067-.517.241-.997.522-1.441a3.935 3.935 0 011.14-1.155 3.974 3.974 0 011.49-.643 3.573 3.573 0 011.533.037 4.194 4.194 0 011.482.717c.472.354.906.82 1.303 1.4l.247.362c.399.583.676 1.157.832 1.723.158.568.205 1.113.14 1.634a3.532 3.532 0 01-.518 1.446 3.99 3.99 0 01-1.14 1.156 3.976 3.976 0 01-1.491.642 3.459 3.459 0 01-1.535-.042 4.092 4.092 0 01-1.477-.72c-.474-.348-.91-.814-1.309-1.397zm1.341-1.447l.254.372c.277.405.557.736.841.994.283.257.569.441.855.553.287.112.569.15.846.114.281-.033.553-.14.819-.322.265-.181.464-.396.596-.646.131-.243.197-.518.197-.826a2.903 2.903 0 00-.211-.994 5.61 5.61 0 00-.621-1.144l-.254-.372a5.68 5.68 0 00-.841-.994 2.874 2.874 0 00-.858-.559 1.758 1.758 0 00-.85-.118 1.802 1.802 0 00-.819.321 1.815 1.815 0 00-.596.646 1.698 1.698 0 00-.193.831c.006.309.077.642.214 1 .139.361.346.742.621 1.144zM181.777 237.094l-.206-.387c-.33-.62-.542-1.221-.637-1.804a4.172 4.172 0 01.04-1.639c.124-.507.35-.965.678-1.375a3.951 3.951 0 011.26-1.023 3.991 3.991 0 011.552-.475 3.575 3.575 0 011.519.205 4.2 4.2 0 011.394.876c.431.404.811.915 1.142 1.536l.205.386c.333.624.545 1.225.637 1.804a4.158 4.158 0 01-.04 1.64c-.125.512-.35.972-.674 1.38-.329.41-.749.751-1.26 1.023a3.964 3.964 0 01-1.553.475 3.478 3.478 0 01-1.522-.211 4.085 4.085 0 01-1.388-.879c-.433-.398-.815-.909-1.147-1.532zm1.492-1.291l.212.398c.23.433.472.793.726 1.08.253.287.516.502.789.644.272.143.549.212.829.206.282-.001.565-.078.848-.229.284-.151.506-.343.664-.576a1.72 1.72 0 00.287-.8 2.907 2.907 0 00-.1-1.011 5.68 5.68 0 00-.491-1.206l-.212-.397a5.704 5.704 0 00-.726-1.081 2.909 2.909 0 00-.792-.65 1.758 1.758 0 00-.832-.211 1.811 1.811 0 00-.849.229 1.815 1.815 0 00-.664.576 1.705 1.705 0 00-.283.806c-.028.307.006.646.103 1.016.098.375.262.777.491 1.206zM178.492 243.399l-3.759-8.443 1.734-.772 3.758 8.444-1.733.771zm-2.598 1.157l-.607-1.363 6.889-3.067.607 1.363-6.889 3.067zM169.736 241.71l1.348-.489.344.949-1.074.39c-.314.114-.552.254-.712.42-.159.17-.252.361-.278.573-.027.212.004.44.092.682a1.084 1.084 0 00.964.724c.249.027.536-.018.862-.136a1.8 1.8 0 00.627-.376c.171-.161.288-.343.349-.545a.959.959 0 00-.026-.632l1.784-.647c.139.382.181.754.128 1.115a2.493 2.493 0 01-.4 1.023 3.36 3.36 0 01-.825.852 4.423 4.423 0 01-1.133.6c-.489.177-.95.284-1.383.319a3.163 3.163 0 01-1.183-.098 2.21 2.21 0 01-.93-.534 2.533 2.533 0 01-.614-.986 1.929 1.929 0 01-.102-.915c.04-.311.15-.612.328-.902.179-.29.422-.556.731-.798a4.052 4.052 0 011.103-.589zm1.537.031l-1.349.488a5.148 5.148 0 01-1.313.308 2.924 2.924 0 01-1.095-.096 1.951 1.951 0 01-.842-.499 2.308 2.308 0 01-.552-.887 2.4 2.4 0 01-.14-1.171 2.42 2.42 0 01.408-1.053c.219-.327.513-.62.883-.88a5.389 5.389 0 011.282-.654 5.13 5.13 0 011.216-.278 3.766 3.766 0 011.214.073c.388.089.733.258 1.036.509.302.25.534.598.695 1.044l-1.796.651a1.045 1.045 0 00-.395-.512 1.397 1.397 0 00-.662-.226 1.906 1.906 0 00-.806.124 2.176 2.176 0 00-.786.46 1.268 1.268 0 00-.377.616c-.057.228-.046.451.033.67.085.235.189.422.312.562.123.14.265.239.426.298.162.063.343.085.543.066.197-.017.414-.069.653-.155l1.074-.389.338.931zM163.673 245.298l-2.085.557c-.699.186-1.333.231-1.902.133-.574-.097-1.051-.319-1.434-.669-.386-.348-.654-.802-.803-1.362a2.933 2.933 0 01-.078-1.227c.062-.389.206-.752.432-1.088.227-.332.53-.623.91-.874.38-.25.833-.445 1.361-.586l3.287-.878 2.384 8.93-1.846.493-2.001-7.495-1.441.385c-.348.093-.618.235-.812.427a1.33 1.33 0 00-.383.66c-.055.252-.047.51.024.776.067.254.186.467.355.641.17.178.387.295.652.352.261.057.565.039.912-.053l2.085-.557.383 1.435zm-7.232 5.419l-2.383-8.929 1.833-.49 2.384 8.93-1.834.489zM149.255 246.78l2.339-.409.238 1.286-1.964.343c-.346.061-.621.154-.827.28a1.052 1.052 0 00-.425.481 1.168 1.168 0 00-.057.667c.049.283.144.503.283.659a.903.903 0 00.56.295c.235.041.528.03.878-.031l1.3-.227-1.335-7.635 1.876-.328 1.592 9.104-3.176.556a6.242 6.242 0 01-1.446.098 3.141 3.141 0 01-1.149-.27 2.062 2.062 0 01-.805-.658c-.208-.281-.349-.635-.423-1.06a2.186 2.186 0 01.074-1.083c.112-.346.331-.65.659-.914.323-.263.773-.455 1.349-.577l.459-.577zm-.617-4.01l2.77-.484-.476 1.591-2.038.356c-.33.058-.589.157-.779.298a1.09 1.09 0 00-.387.518 1.313 1.313 0 00-.039.658c.046.267.133.49.259.67.122.181.29.306.504.376.215.074.483.083.803.027l1.808-.316.212 1.29-2.251.394-.52-.431c-.553.105-1.016.085-1.389-.06a1.833 1.833 0 01-.881-.651 2.346 2.346 0 01-.418-.991c-.102-.583-.061-1.097.123-1.542.185-.44.506-.804.963-1.09.453-.285 1.031-.49 1.736-.613zM140.051 248.37l-1.252 1.835 2.056.414-.293 1.143-2.036-.632.291 2.199-1.227.095-.042-2.263-1.876.928-.461-1.104 2-.728-1.472-1.586.94-.773 1.307 1.758 1.02-1.88 1.045.594zM124.245 247.504l-1.898-.036c.05-.621.232-1.17.546-1.647.31-.476.738-.845 1.285-1.105.543-.26 1.193-.383 1.95-.369.592.012 1.121.124 1.587.336.466.216.862.52 1.189.912.322.391.565.861.728 1.41.163.549.238 1.163.225 1.839l-.013.641c-.013.677-.113 1.287-.302 1.829a4.029 4.029 0 01-.801 1.388 3.446 3.446 0 01-1.229.865c-.474.198-1 .292-1.58.281-.77-.015-1.417-.167-1.94-.457a3.049 3.049 0 01-1.216-1.179 3.913 3.913 0 01-.5-1.685l1.904.036c.013.373.081.69.203.95.122.265.311.465.567.602.251.14.588.214 1.011.222.317.006.596-.047.835-.161a1.55 1.55 0 00.607-.528c.165-.238.292-.541.379-.907a6.31 6.31 0 00.139-1.28l.013-.654a6.582 6.582 0 00-.084-1.265 2.908 2.908 0 00-.312-.92 1.55 1.55 0 00-.573-.57 1.911 1.911 0 00-.866-.201c-.398-.007-.727.05-.987.172a1.318 1.318 0 00-.602.553c-.144.247-.233.557-.265.928zM119.194 253.47l-1.603-.174-1.629-7.002-3.091 6.491-1.603-.174 4.315-8.829 1.287.14 2.324 9.548zm.865.094l-1.597-.173.422-6.608.283-2.612 1.887.204-.995 9.189zM112 252.69l-1.603-.173.996-9.189 1.893.205-.283 2.613L112 252.69zM101.146 246.289l.084-.43c.134-.689.348-1.29.642-1.802a4.147 4.147 0 011.064-1.248 3.5 3.5 0 011.392-.64 3.958 3.958 0 011.623-.001 3.996 3.996 0 011.505.61c.43.295.78.667 1.05 1.116.27.453.446.973.531 1.558.08.585.053 1.222-.081 1.912l-.084.43c-.135.693-.349 1.294-.642 1.802a4.16 4.16 0 01-1.064 1.248c-.42.319-.885.534-1.394.647a3.994 3.994 0 01-1.623 0 3.962 3.962 0 01-1.504-.609 3.456 3.456 0 01-1.049-1.123 4.088 4.088 0 01-.525-1.557c-.085-.581-.06-1.219.075-1.913zm1.972-.062l-.087.442a5.663 5.663 0 00-.116 1.297 2.8 2.8 0 00.207.997c.121.283.293.51.513.682.22.177.488.296.804.357.316.062.609.052.879-.029.265-.078.507-.225.726-.441.214-.217.401-.499.559-.848.159-.349.285-.764.379-1.246l.086-.442c.093-.478.132-.91.116-1.296a2.882 2.882 0 00-.205-1.004 1.756 1.756 0 00-.513-.688 1.805 1.805 0 00-.803-.357 1.81 1.81 0 00-.879.029c-.27.081-.513.23-.727.447a2.958 2.958 0 00-.561.854 5.683 5.683 0 00-.378 1.246zM94.618 249.09l2.417-8.92 1.832.496-2.417 8.921-1.832-.497zm-2.745-.744l.39-1.439 7.279 1.972-.39 1.44-7.279-1.973zM89.138 241.124l2.222.778-.49 1.402-2.223-.778c-.343-.12-.643-.162-.897-.125-.257.04-.47.145-.641.314a1.633 1.633 0 00-.391.636c-.09.26-.126.519-.104.778.022.258.117.493.285.705.168.211.424.376.767.497l1.6.559 2.559-7.316 1.797.629-3.05 8.724-3.398-1.188c-.683-.239-1.225-.568-1.626-.986a2.806 2.806 0 01-.772-1.406c-.109-.523-.066-1.061.128-1.616.197-.564.497-1.006.901-1.326.403-.321.89-.507 1.46-.559.565-.053 1.19.039 1.873.278zM79.172 235.174l.588-1.363 4.517 1.95-.589 1.364-4.516-1.951zm.87 8.825l3.664-8.485 1.748.755-3.664 8.485-1.748-.755zm-1.865-4.905l.574-1.329 3.928 1.696-.574 1.329-3.928-1.696zm-2.075 3.204l.592-1.369 4.51 1.947-.591 1.37-4.51-1.948zM70.506 239.503l4.223-8.221 1.689.867-4.223 8.222-1.689-.868zm-2.53-1.299l.682-1.327 6.708 3.446-.681 1.327-6.708-3.446zM67.5 234.016l-1.846-1.118c-.623-.377-1.096-.805-1.42-1.283-.324-.478-.494-.977-.51-1.497-.017-.52.124-1.027.425-1.523.228-.377.505-.679.83-.907.325-.224.688-.37 1.09-.438.397-.067.817-.05 1.26.051.445.1.9.292 1.367.575l2.91 1.763-4.788 7.905-1.635-.99 4.02-6.635-1.277-.773c-.311-.188-.603-.286-.876-.293a1.337 1.337 0 00-.736.185 1.575 1.575 0 00-.548.551 1.389 1.389 0 00-.211.703c-.01.246.053.483.193.711.139.228.364.436.675.624l1.846 1.119-.77 1.27zM55.743 223.954l1.888 1.438-.782 1.049-1.585-1.208c-.28-.213-.536-.352-.768-.417a1.047 1.047 0 00-.641.014 1.18 1.18 0 00-.529.412c-.174.229-.271.447-.292.655a.906.906 0 00.165.612c.13.2.336.408.619.623l1.05.8 4.695-6.167 1.515 1.154-5.599 7.353-2.565-1.953a6.22 6.22 0 01-1.054-.994 3.14 3.14 0 01-.583-1.027 2.059 2.059 0 01-.064-1.037c.066-.344.229-.688.49-1.031.231-.304.513-.53.846-.681.33-.153.702-.199 1.118-.138.413.059.86.258 1.34.598l.736-.055zm2.523-3.177l2.237 1.704-1.49.732-1.647-1.254c-.266-.203-.516-.326-.748-.37a1.082 1.082 0 00-.643.069 1.32 1.32 0 00-.51.418c-.164.215-.269.43-.315.645a.942.942 0 00.066.625c.092.208.267.411.527.608l1.46 1.112-.803 1.032-1.818-1.384-.037-.675c-.453-.334-.753-.687-.9-1.06a1.838 1.838 0 01-.12-1.089c.069-.356.217-.683.442-.979.359-.471.764-.791 1.216-.957.449-.164.933-.175 1.454-.034.517.138 1.06.424 1.629.857zM50.837 218.631l-6.934 2.172-1.418-1.271 6.17-6.882 1.417 1.271-4.17 4.651 6.935-2.172 1.418 1.271-6.17 6.882-1.417-1.271 4.17-4.651zM41.015 206.918l1.076-1.023 4.588 4.826-1.077 1.024-4.587-4.827zm4.198 4.417l2.719-2.584 1.233 1.297-2.65 2.658-1.302-1.371zm-5.143-5.411l2.838-2.469 1.202 1.265-2.724 2.589-1.316-1.385zm-3.956 7.097l1.08-1.028 3.066 3.226-1.081 1.027-3.065-3.225zm-.936-.985l6.7-6.367 1.307 1.376-6.7 6.367-1.307-1.376zm4.163 4.381l-1.312-1.381 2.899-2.414c.477-.4.923-.73 1.336-.989a7.821 7.821 0 011.143-.613 5.61 5.61 0 01.987-.334c.304-.067.59-.105.856-.113a5.65 5.65 0 01.749.032c.233.03.455.064.666.103l.753.791-1.077 1.023-.293-.308a2.566 2.566 0 00-.57.008 3.003 3.003 0 00-.791.209 6.244 6.244 0 00-1.065.556 12.8 12.8 0 00-1.382 1.016l-2.9 2.414zM35.45 200.216l1.152-.938 3.107 3.814-1.152.938-3.107-3.814zm-3.3 8.231l7.166-5.837 1.203 1.476-7.166 5.837-1.203-1.476zm.61-5.212l1.122-.914 2.702 3.317-1.122.914-2.703-3.317zm-3.32 1.885l1.157-.942 3.103 3.809-1.157.942-3.103-3.809zM27.399 194.73l.357-.253c.575-.405 1.145-.69 1.711-.857a4.16 4.16 0 011.632-.164 3.488 3.488 0 011.448.501c.445.271.836.645 1.173 1.123.334.473.555.967.664 1.481.106.51.101 1.021-.014 1.532a4.185 4.185 0 01-.696 1.493c-.346.477-.807.919-1.38 1.323l-.359.253c-.577.407-1.147.693-1.71.857a4.16 4.16 0 01-1.632.164 3.535 3.535 0 01-1.454-.497 3.994 3.994 0 01-1.172-1.123 3.962 3.962 0 01-.664-1.481 3.46 3.46 0 01.02-1.536c.118-.514.351-1.01.698-1.487.34-.479.8-.922 1.378-1.329zm1.466 1.319l-.368.26a5.627 5.627 0 00-.982.855 2.805 2.805 0 00-.54.863 1.7 1.7 0 00-.102.848c.037.28.148.551.334.814.185.263.403.458.654.587.246.127.522.189.83.184.305-.008.635-.083.99-.225a5.657 5.657 0 001.135-.637l.369-.26a5.68 5.68 0 00.981-.856c.253-.287.435-.576.546-.866.107-.288.143-.572.106-.852a1.815 1.815 0 00-.333-.814 1.815 1.815 0 00-.655-.586 1.698 1.698 0 00-.834-.181c-.308.01-.64.087-.996.229a5.666 5.666 0 00-1.135.637zM20.795 183.349l.384-.211c.615-.339 1.213-.561 1.794-.664a4.175 4.175 0 011.64.016c.509.116.97.335 1.385.657.412.319.76.734 1.042 1.245.28.508.445 1.023.497 1.546a3.57 3.57 0 01-.183 1.521c-.175.498-.46.967-.855 1.407-.397.437-.903.825-1.518 1.164l-.384.211c-.619.342-1.217.563-1.794.664a4.156 4.156 0 01-1.64-.016 3.55 3.55 0 01-1.39-.654 3.986 3.986 0 01-1.042-1.245 3.961 3.961 0 01-.497-1.545 3.462 3.462 0 01.188-1.525c.175-.498.461-.965.858-1.401.392-.438.897-.828 1.515-1.17zm1.313 1.473l-.395.218c-.43.237-.786.484-1.07.742a2.803 2.803 0 00-.632.798 1.7 1.7 0 00-.193.832c.005.282.086.564.241.845.156.282.351.5.587.656.23.153.497.245.803.274.304.025.641-.013 1.01-.115a5.569 5.569 0 001.198-.509l.395-.217a5.7 5.7 0 001.07-.742c.282-.258.495-.525.637-.802.139-.274.205-.553.2-.835a1.814 1.814 0 00-.242-.845c-.155-.282-.35-.5-.586-.655a1.701 1.701 0 00-.81-.272 2.986 2.986 0 00-1.015.118 5.666 5.666 0 00-1.198.509zM14.45 180.183l8.386-3.884.798 1.723-8.387 3.883-.797-1.722zm-1.196-2.58l1.354-.627 3.169 6.843-1.354.626-3.169-6.842zM16.006 171.412l.509 1.341-.944.358-.405-1.068c-.119-.313-.262-.548-.43-.706a1.01 1.01 0 00-.578-.269c-.213-.024-.44.01-.681.102a1.086 1.086 0 00-.71.975c-.023.249.027.535.15.86.093.245.222.452.385.621.164.169.347.282.55.341.2.06.41.048.632-.036l.673 1.774c-.38.145-.75.193-1.113.145a2.513 2.513 0 01-1.028-.384 3.39 3.39 0 01-.865-.813 4.457 4.457 0 01-.617-1.123 5.356 5.356 0 01-.34-1.379c-.045-.43-.019-.825.08-1.184.1-.359.273-.672.52-.938.248-.266.574-.475.977-.628.297-.113.602-.152.914-.116.312.035.614.14.907.314.292.174.562.414.808.718.243.307.445.671.606 1.095zm-.007 1.537l-.51-1.341a5.126 5.126 0 01-.326-1.309 2.894 2.894 0 01.08-1.096 1.95 1.95 0 01.485-.85c.226-.239.519-.427.879-.564a2.406 2.406 0 011.169-.158 2.41 2.41 0 011.058.392c.33.214.628.504.894.869.264.362.488.786.673 1.273.147.387.246.791.296 1.211.047.421.029.827-.054 1.216a2.47 2.47 0 01-.494 1.043c-.246.306-.59.543-1.033.711l-.678-1.786c.21-.08.378-.214.506-.403.123-.187.195-.409.215-.666a1.914 1.914 0 00-.135-.804c-.125-.328-.282-.588-.472-.778a1.274 1.274 0 00-.622-.368 1.124 1.124 0 00-.669.043c-.233.089-.42.196-.558.32a1.039 1.039 0 00-.291.43c-.06.163-.08.345-.058.545.02.196.075.413.165.65l.405 1.068-.925.352zM12.35 165.501l-.589-2.076c-.197-.696-.251-1.33-.162-1.9.088-.575.304-1.056.647-1.444.342-.391.792-.666 1.35-.824a2.96 2.96 0 011.226-.097c.39.057.755.196 1.094.416.336.222.631.521.887.897s.459.826.608 1.352l.927 3.273-8.893 2.519-.52-1.838 7.463-2.114-.407-1.436c-.098-.346-.244-.614-.439-.805a1.32 1.32 0 00-.666-.372 1.612 1.612 0 00-.775.034 1.441 1.441 0 00-.636.365c-.175.173-.289.392-.341.658-.054.261-.032.565.066.911l.589 2.077-1.43.404zm-5.529-7.149l8.893-2.519.517 1.826-8.893 2.519-.517-1.826zM10.644 151.147l.444 2.332-1.282.257-.373-1.958c-.066-.345-.163-.619-.293-.823a1.04 1.04 0 00-.486-.417 1.168 1.168 0 00-.669-.047c-.282.054-.5.151-.655.293a.905.905 0 00-.286.565c-.037.235-.022.527.045.877l.247 1.296 7.613-1.452.357 1.871-9.079 1.732-.604-3.168a6.196 6.196 0 01-.12-1.444 3.14 3.14 0 01.252-1.153c.148-.33.363-.601.646-.815.278-.212.629-.359 1.053-.44a2.179 2.179 0 011.084.059c.347.106.656.32.924.644.268.319.467.766.598 1.34l.584.451zm4-.679l.526 2.762-1.598-.451-.388-2.033c-.062-.328-.165-.586-.309-.774a1.085 1.085 0 00-.524-.379 1.33 1.33 0 00-.659-.029c-.266.051-.488.14-.666.269a.942.942 0 00-.368.51c-.07.216-.075.484-.014.804l.343 1.802-1.286.232-.429-2.244.423-.527c-.113-.551-.1-1.015.039-1.39a1.84 1.84 0 01.638-.891c.29-.219.618-.363.983-.433.582-.111 1.097-.078 1.544.1.444.178.812.493 1.105.946.292.448.505 1.023.64 1.726zM8.897 141.944l-1.854-1.224-.382 2.063-1.148-.276.6-2.045-2.194.325-.114-1.226 2.263-.076-.957-1.862 1.096-.478.759 1.988 1.563-1.496.787.928-1.737 1.334 1.896.991-.578 1.054zM9.508 126.349l.008-1.898a3.443 3.443 0 011.655.521c.48.302.856.725 1.125 1.267.268.539.401 1.187.398 1.944-.002.593-.106 1.123-.31 1.592-.21.469-.508.87-.894 1.203a3.977 3.977 0 01-1.4.75 6.04 6.04 0 01-1.835.253l-.64-.002a5.914 5.914 0 01-1.834-.274 4.047 4.047 0 01-1.4-.78 3.447 3.447 0 01-.884-1.216 3.853 3.853 0 01-.305-1.575c.003-.77.145-1.419.426-1.947a3.054 3.054 0 011.16-1.234 3.903 3.903 0 011.678-.526l-.007 1.904c-.373.02-.688.093-.947.218a1.26 1.26 0 00-.592.576c-.137.253-.206.591-.207 1.015a1.84 1.84 0 00.174.832c.118.237.297.437.537.599.241.161.545.283.913.365.364.078.791.117 1.282.119l.654.003a6.6 6.6 0 001.263-.103c.36-.071.665-.18.916-.327a1.53 1.53 0 00.56-.582c.124-.24.187-.53.188-.869.001-.397-.06-.726-.187-.984a1.318 1.318 0 00-.562-.593c-.25-.14-.56-.224-.933-.251zM3.468 121.075l.149-1.606 6.976-1.736-6.538-2.991.15-1.606 8.893 4.179-.12 1.289-9.51 2.471zm-.08.866l.148-1.599 6.613.32 2.616.243-.175 1.89-9.203-.854zm.748-8.072l.15-1.605 9.202.854-.176 1.896-2.617-.243-6.559-.902zM10.3 103.289l.432.078c.691.123 1.295.328 1.812.614a4.16 4.16 0 011.264 1.045c.322.41.542.871.662 1.382.12.507.128 1.048.025 1.623a3.998 3.998 0 01-.586 1.514 3.57 3.57 0 01-1.1 1.067c-.45.276-.967.461-1.55.555-.584.089-1.222.071-1.913-.052l-.431-.077c-.696-.125-1.3-.33-1.812-.615a4.16 4.16 0 01-1.264-1.045 3.534 3.534 0 01-.668-1.383 3.993 3.993 0 01-.026-1.623c.103-.575.299-1.08.587-1.514.289-.438.658-.794 1.106-1.066a4.11 4.11 0 011.55-.548c.58-.094 1.217-.079 1.913.045zm.093 1.971l-.443-.08a5.63 5.63 0 00-1.299-.096 2.81 2.81 0 00-.994.222c-.28.126-.505.3-.674.524a1.815 1.815 0 00-.344.809c-.057.316-.043.609.042.878.082.264.233.504.452.719.22.212.506.394.857.547.35.153.768.273 1.251.359l.444.079c.479.086.911.118 1.298.097a2.869 2.869 0 001-.221c.28-.126.507-.3.68-.523.174-.223.288-.492.345-.809a1.815 1.815 0 00-.043-.878 1.7 1.7 0 00-.458-.72 2.972 2.972 0 00-.863-.548 5.619 5.619 0 00-1.25-.359zM7.42 96.606l8.956 2.282-.469 1.839-8.956-2.282.469-1.839zm.702-2.755l1.445.368-1.861 7.307-1.446-.368 1.862-7.308zM15.321 90.892l-.744 2.234-1.409-.469.744-2.234c.115-.346.152-.645.112-.9a1.14 1.14 0 00-.323-.636 1.636 1.636 0 00-.643-.38 1.86 1.86 0 00-.779-.093 1.282 1.282 0 00-.7.295c-.209.172-.37.43-.486.775l-.535 1.609 7.354 2.447-.602 1.807-8.769-2.919 1.137-3.415c.228-.686.549-1.233.96-1.64.41-.412.875-.677 1.396-.794.52-.116 1.06-.082 1.617.104.567.189 1.013.482 1.34.88.326.4.52.883.58 1.452.062.565-.021 1.19-.25 1.877zM21.126 80.799l1.372.568-1.882 4.545-1.372-.568 1.882-4.545zm-8.81 1.002l8.538 3.537-.729 1.759-8.539-3.537.73-1.76zm4.876-1.938l1.337.554-1.637 3.953-1.337-.554 1.637-3.953zm-3.235-2.026l1.378.57-1.88 4.54-1.378-.571 1.88-4.54zM16.682 72.155l8.282 4.1-.842 1.702-8.282-4.1.842-1.702zm1.261-2.548l1.337.662-3.346 6.758-1.336-.662 3.345-6.758zM22.079 69.133l1.09-1.862c.369-.628.79-1.108 1.262-1.439.474-.33.97-.508 1.49-.532.52-.025 1.029.11 1.53.403.379.222.685.495.918.817.229.321.38.682.454 1.083a3.24 3.24 0 01-.032 1.261 4.625 4.625 0 01-.555 1.374l-1.72 2.936-7.974-4.671.965-1.649 6.693 3.92.754-1.286c.184-.314.278-.608.28-.88a1.334 1.334 0 00-.195-.734 1.57 1.57 0 00-.56-.54 1.391 1.391 0 00-.706-.2 1.24 1.24 0 00-.707.203c-.226.142-.43.37-.615.684l-1.09 1.863-1.282-.751zM31.81 57.41l-1.41 1.91-1.06-.767 1.185-1.603c.209-.282.344-.54.406-.773.058-.236.05-.45-.024-.641a1.172 1.172 0 00-.419-.523c-.232-.17-.451-.265-.66-.282a.907.907 0 00-.61.173c-.197.133-.402.342-.613.628l-.784 1.062 6.234 4.605-1.132 1.532-7.434-5.491 1.916-2.594c.32-.432.646-.789.979-1.069a3.14 3.14 0 011.018-.597 2.062 2.062 0 011.036-.08c.345.061.691.22 1.038.476.307.226.538.505.693.835.159.327.21.7.155 1.116-.053.414-.246.863-.578 1.349l.065.734zm3.214 2.477l-1.67 2.262-.754-1.48 1.23-1.665c.198-.269.318-.52.358-.753.037-.235.011-.45-.078-.642a1.317 1.317 0 00-.425-.503 1.648 1.648 0 00-.65-.306.942.942 0 00-.624.076c-.207.094-.407.272-.6.535l-1.09 1.475-1.045-.787 1.358-1.838.674-.047c.328-.458.677-.763 1.047-.915.37-.159.732-.204 1.087-.136.358.064.686.207.986.428.476.352.801.752.975 1.201.17.447.188.931.055 1.453-.131.52-.409 1.067-.834 1.642zM37.224 52.192l-2.272-6.902 1.25-1.436 6.97 6.068-1.25 1.437-4.71-4.102 2.272 6.902-1.25 1.437-6.971-6.07 1.25-1.435 4.711 4.1zM48.48 42.49l1.04 1.063-4.76 4.656-1.039-1.061 4.76-4.657zm-4.355 4.263l2.624 2.681-1.28 1.252-2.696-2.61 1.352-1.323zm5.336-5.221l2.51 2.801-1.248 1.221-2.628-2.686 1.366-1.336zm-7.154-3.853l1.043 1.066-3.18 3.112-1.043-1.066 3.18-3.112zm.971-.95l6.464 6.606-1.357 1.327-6.463-6.606 1.356-1.327zm-4.32 4.226l1.362-1.332 2.456 2.864c.407.471.744.912 1.008 1.322.265.404.475.782.63 1.133.158.35.274.677.348.983.072.303.114.587.126.854a5.6 5.6 0 01-.022.75c-.026.232-.057.455-.092.667l-.78.764-1.04-1.062.304-.298a2.549 2.549 0 00-.016-.57 3.011 3.011 0 00-.22-.788 6.237 6.237 0 00-.572-1.056c-.256-.401-.601-.857-1.036-1.367l-2.455-2.864zM55.35 36.567l.954 1.137-3.768 3.163-.955-1.138 3.768-3.162zm-8.279-3.18l5.941 7.08-1.458 1.224-5.941-7.08 1.458-1.224zm5.22.533l.931 1.109-3.277 2.75-.93-1.109 3.277-2.75zM50.36 30.63l.958 1.142-3.763 3.158-.96-1.142 3.764-3.158zM60.58 28.518l.259.355c.413.568.707 1.134.881 1.697a4.16 4.16 0 01.188 1.63 3.496 3.496 0 01-.48 1.455 3.964 3.964 0 01-1.105 1.19c-.468.34-.959.569-1.471.685a3.571 3.571 0 01-1.533.008 4.184 4.184 0 01-1.502-.673c-.483-.34-.93-.794-1.344-1.362l-.257-.354c-.416-.572-.71-1.138-.882-1.698a4.162 4.162 0 01-.188-1.63 3.535 3.535 0 01.476-1.46 3.992 3.992 0 011.105-1.189 3.964 3.964 0 011.472-.686 3.46 3.46 0 011.536-.002 4.102 4.102 0 011.497.677c.483.333.933.786 1.349 1.357zm-1.297 1.486l-.265-.364a5.614 5.614 0 00-.87-.97 2.806 2.806 0 00-.87-.527 1.699 1.699 0 00-.85-.089c-.279.04-.548.156-.808.345-.26.19-.453.41-.578.663a1.715 1.715 0 00-.172.832c.013.305.092.634.24.987.147.354.365.73.654 1.126l.265.364c.286.394.576.717.87.97.29.248.582.426.874.533.29.103.574.134.853.093.28-.04.549-.155.809-.345.26-.189.452-.41.577-.663.125-.253.18-.532.168-.837a2.97 2.97 0 00-.243-.992 5.674 5.674 0 00-.654-1.126zM71.446 21.929l.219.38c.35.608.583 1.202.696 1.781a4.16 4.16 0 01.015 1.64c-.107.51-.317.976-.632 1.396-.31.419-.72.774-1.225 1.065a3.993 3.993 0 01-1.536.526 3.571 3.571 0 01-1.525-.155 4.183 4.183 0 01-1.422-.829c-.444-.389-.841-.888-1.192-1.497l-.218-.379c-.353-.612-.585-1.206-.697-1.782a4.158 4.158 0 01-.014-1.64c.108-.516.317-.983.628-1.402.315-.42.723-.775 1.225-1.064a3.964 3.964 0 011.536-.526 3.461 3.461 0 011.528.16c.501.166.973.443 1.417.832.446.384.845.881 1.197 1.494zm-1.448 1.34l-.225-.391a5.612 5.612 0 00-.761-1.056 2.807 2.807 0 00-.81-.618 1.7 1.7 0 00-.836-.178c-.281.011-.562.097-.84.257-.28.16-.494.36-.645.598-.15.233-.236.503-.26.81-.02.304.025.64.134 1.006.109.367.286.764.53 1.19l.226.39c.243.421.497.773.762 1.055.262.279.534.486.813.623.277.134.556.195.838.184.282-.01.562-.096.84-.257.28-.16.494-.36.645-.598.151-.238.236-.51.256-.814a2.968 2.968 0 00-.136-1.013 5.669 5.669 0 00-.53-1.189zM75.18 15.171l4.007 8.328-1.71.823-4.008-8.328 1.71-.823zm2.562-1.233l.647 1.344-6.795 3.27-.647-1.344 6.795-3.27zM83.955 16.602l-1.333.53-.372-.939 1.062-.421c.31-.124.544-.27.699-.442.154-.175.24-.368.26-.581.021-.213-.017-.44-.112-.68a1.088 1.088 0 00-.986-.694c-.249-.02-.534.034-.857.162a1.79 1.79 0 00-.615.395 1.241 1.241 0 00-.333.555.96.96 0 00.046.631l-1.765.7a2.262 2.262 0 01-.16-1.11c.045-.37.167-.714.368-1.035.203-.326.47-.618.8-.877.33-.258.7-.47 1.114-.633a5.36 5.36 0 011.373-.36 3.17 3.17 0 011.185.062c.36.093.676.262.945.505.27.244.484.567.644.968.117.295.16.599.13.911-.032.313-.132.617-.302.912-.17.295-.405.568-.706.82a4.07 4.07 0 01-1.085.621zm-1.537.016l1.334-.53a5.122 5.122 0 011.303-.346c.405-.047.77-.025 1.097.063.331.088.617.245.857.473.243.223.436.513.578.87.159.402.218.79.176 1.167-.038.374-.164.73-.377 1.064-.21.334-.495.636-.856.907-.358.27-.778.5-1.262.692a5.133 5.133 0 01-1.207.314c-.42.054-.826.041-1.216-.036a2.463 2.463 0 01-1.05-.478c-.31-.241-.552-.582-.727-1.023l1.776-.704c.083.208.22.375.41.5.19.12.412.189.669.205.255.013.523-.036.802-.147.326-.13.583-.29.771-.484.192-.194.311-.403.359-.627.05-.23.032-.452-.054-.668a1.752 1.752 0 00-.328-.553 1.033 1.033 0 00-.434-.285 1.187 1.187 0 00-.546-.05 2.598 2.598 0 00-.647.175l-1.063.421-.365-.92zM89.626 12.91l2.067-.62c.693-.207 1.326-.27 1.897-.19.576.079 1.06.287 1.453.624.397.337.679.782.845 1.338.126.421.165.83.115 1.224-.05.39-.184.758-.399 1.1-.216.34-.51.64-.883.901-.372.262-.82.471-1.343.628l-3.259.977-2.653-8.854 1.83-.548 2.227 7.43 1.429-.428c.344-.103.61-.254.799-.451.192-.2.313-.423.362-.672a1.617 1.617 0 00-.047-.775 1.43 1.43 0 00-.374-.63 1.232 1.232 0 00-.663-.331c-.262-.05-.565-.023-.91.08l-2.067.62-.427-1.423zm7.064-5.636l2.653 8.854-1.818.544-2.653-8.853 1.818-.545zM103.894 10.98l-2.325.481-.277-1.278 1.952-.403c.344-.071.617-.173.819-.305.201-.137.337-.301.41-.493.076-.198.088-.42.037-.67-.058-.281-.159-.498-.303-.65a.907.907 0 00-.57-.277c-.235-.034-.527-.014-.876.058l-1.293.267 1.569 7.59-1.865.385-1.87-9.05 3.158-.653a6.195 6.195 0 011.442-.143c.439.013.824.091 1.156.234.332.144.607.355.825.634.216.275.368.624.456 1.046.077.373.063.735-.042 1.085-.101.35-.311.66-.63.934-.315.272-.759.479-1.331.618l-.442.59zm.74 3.99l-2.754.569.427-1.605 2.027-.419c.327-.068.584-.175.77-.321.184-.15.308-.327.37-.53.061-.203.068-.423.019-.659a1.656 1.656 0 00-.279-.662.945.945 0 00-.515-.36c-.217-.067-.486-.068-.805-.002l-1.796.371-.252-1.283 2.238-.463.533.415c.549-.122 1.013-.116 1.39.018.381.128.681.337.9.624.224.286.373.612.449.977.12.58.094 1.095-.076 1.545-.172.446-.482.82-.929 1.119-.444.3-1.016.521-1.717.666zM113.08 9.07l1.196-1.872-2.069-.351.258-1.152 2.054.57-.358-2.19 1.224-.133.111 2.261 1.847-.985.495 1.09-1.977.788 1.52 1.54-.915.802-1.361-1.717-.962 1.91-1.063-.56zM127.948 9.428l1.897-.029a3.439 3.439 0 01-.488 1.665c-.293.486-.708.87-1.246 1.149-.533.279-1.178.424-1.936.436-.592.01-1.125-.084-1.597-.28-.473-.2-.88-.49-1.22-.87a3.96 3.96 0 01-.777-1.385 6.025 6.025 0 01-.288-1.83l-.01-.641a5.9 5.9 0 01.238-1.838 4.034 4.034 0 01.753-1.415c.332-.39.732-.693 1.198-.907a3.86 3.86 0 011.569-.336c.77-.011 1.422.118 1.955.39.538.27.956.649 1.256 1.135.303.486.49 1.042.559 1.668l-1.904.029c-.027-.372-.106-.686-.237-.942a1.262 1.262 0 00-.587-.582c-.256-.131-.595-.194-1.018-.187a1.836 1.836 0 00-.829.19 1.543 1.543 0 00-.588.55 2.67 2.67 0 00-.348.919 6.265 6.265 0 00-.094 1.284l.01.653c.007.478.049.899.127 1.262.078.358.192.661.344.909.156.243.354.426.593.55a1.9 1.9 0 00.872.17c.398-.006.725-.075.981-.206.256-.13.45-.322.581-.574.136-.252.214-.564.234-.937zM133.981 3.297l1.607.124 1.844 6.948 2.89-6.582 1.608.124-4.042 8.957-1.291-.1-2.616-9.471zm-.867-.067l1.601.123-.219 6.617-.202 2.62-1.893-.146.713-9.214zm8.081.624l1.608.125-.712 9.214-1.899-.147.203-2.62.8-6.572zM151.67 9.815l-.07.433c-.114.693-.309 1.3-.587 1.82-.278.521-.62.948-1.025 1.28a3.504 3.504 0 01-1.372.683 3.966 3.966 0 01-1.623.05 3.987 3.987 0 01-1.522-.563 3.568 3.568 0 01-1.084-1.083 4.166 4.166 0 01-.578-1.542c-.098-.582-.091-1.22.022-1.913l.071-.432c.113-.697.309-1.304.586-1.82a4.16 4.16 0 011.026-1.28 3.53 3.53 0 011.373-.69 3.99 3.99 0 011.622-.05 3.965 3.965 0 011.523.563c.442.282.803.646 1.082 1.09.284.445.474.958.572 1.54.103.579.098 1.217-.016 1.914zm-1.969.123l.073-.445c.079-.484.105-.918.077-1.3a2.82 2.82 0 00-.237-.99 1.706 1.706 0 00-.535-.666 1.815 1.815 0 00-.814-.332 1.813 1.813 0 00-.877.056c-.263.086-.501.24-.713.463a2.898 2.898 0 00-.533.865 5.596 5.596 0 00-.34 1.256l-.073.445c-.078.48-.104.914-.077 1.3.028.381.107.714.237.996.13.279.308.503.533.673.225.17.497.28.814.332.318.052.61.033.878-.056.267-.09.505-.246.713-.47.209-.227.387-.517.534-.87.149-.358.262-.777.34-1.257zM158.508 6.857l-2.146 8.99-1.846-.44 2.145-8.99 1.847.44zm2.766.66l-.347 1.451-7.335-1.75.347-1.45 7.335 1.75zM164.448 14.695l-2.246-.71.448-1.416 2.246.71c.347.11.647.143.9.099.255-.049.466-.16.632-.333a1.64 1.64 0 00.371-.649c.083-.262.11-.522.08-.78a1.282 1.282 0 00-.305-.696c-.175-.206-.436-.364-.783-.473l-1.616-.511-2.336 7.39-1.816-.575 2.786-8.812 3.432 1.085c.69.219 1.242.53 1.655.936.418.403.69.864.814 1.383.125.519.098 1.059-.079 1.62-.18.568-.467 1.019-.861 1.352-.393.332-.874.533-1.442.602-.563.07-1.19-.003-1.88-.222zM174.673 20.363l-.548 1.381-4.573-1.814.548-1.38 4.573 1.813zm-1.134-8.794l-3.408 8.59-1.77-.702 3.408-8.59 1.77.702zm2.01 4.847l-.533 1.345-3.977-1.578.534-1.345 3.976 1.578zm1.979-3.265l-.551 1.387-4.566-1.812.55-1.387 4.567 1.812zM182.502 15.433l-3.946 8.357-1.717-.81 3.946-8.358 1.717.81zm2.571 1.214l-.637 1.349-6.819-3.22.637-1.349 6.819 3.22zM186.378 21.158l1.878 1.063c.634.359 1.119.772 1.457 1.24.338.47.523.963.555 1.482.032.519-.095 1.03-.381 1.535a2.956 2.956 0 01-.804.93c-.317.234-.676.391-1.076.471a3.24 3.24 0 01-1.261-.014 4.62 4.62 0 01-1.382-.534l-2.961-1.677 4.553-8.042 1.663.941-3.822 6.75 1.298.735c.317.18.612.268.885.267.273 0 .516-.07.73-.206.219-.139.396-.328.532-.567.129-.228.193-.465.19-.71a1.24 1.24 0 00-.214-.704c-.146-.224-.377-.425-.693-.604l-1.879-1.064.732-1.292zM198.229 30.71l-1.93-1.383.752-1.07 1.62 1.16c.286.205.545.336.779.394.237.055.45.044.641-.033.196-.078.368-.22.516-.426.168-.234.259-.455.273-.664a.909.909 0 00-.182-.607c-.136-.196-.348-.397-.637-.604l-1.074-.769-4.513 6.3-1.548-1.108 5.382-7.514 2.621 1.878c.437.313.798.634 1.083.963.288.331.493.668.613 1.009.12.34.151.686.094 1.035-.056.346-.209.694-.46 1.045-.222.31-.497.545-.825.705-.325.163-.696.22-1.114.17-.414-.046-.866-.232-1.357-.557l-.734.075zm-2.429 3.249l-2.286-1.638 1.469-.775 1.682 1.205c.272.195.525.31.758.348.237.034.45.005.641-.088.191-.092.357-.236.497-.432.158-.22.257-.438.297-.654a.94.94 0 00-.085-.623c-.097-.205-.279-.403-.544-.593l-1.491-1.068.772-1.056 1.858 1.331.056.673c.463.321.773.666.931 1.034.164.367.214.729.152 1.085-.059.358-.197.689-.414.992-.345.481-.741.812-1.187.992-.444.176-.928.202-1.452.076-.521-.123-1.072-.393-1.654-.81zM202.97 35.589l6.86-2.398 1.458 1.224-5.941 7.08-1.458-1.224 4.015-4.785-6.86 2.398-1.459-1.224 5.941-7.08 1.459 1.224-4.015 4.785zM213.432 47.2l-1.047 1.055-4.725-4.691 1.046-1.054 4.726 4.69zm-4.325-4.293l-2.643 2.663-1.27-1.261 2.571-2.734 1.342 1.332zm5.298 5.26l-2.765 2.55-1.239-1.23 2.648-2.666 1.356 1.346zm3.748-7.209l-1.051 1.059-3.157-3.135 1.051-1.059 3.157 3.135zm.964.957l-6.511 6.559-1.347-1.337 6.512-6.56 1.346 1.338zm-4.288-4.257l1.351 1.341-2.827 2.497c-.466.415-.901.758-1.307 1.028-.4.271-.775.486-1.124.646a5.652 5.652 0 01-.978.363 4.645 4.645 0 01-.852.138c-.263.013-.513.009-.75-.011a13.18 13.18 0 01-.669-.083l-.774-.77 1.046-1.053.302.3c.158.014.348.005.57-.025.224-.028.486-.105.784-.232a6.227 6.227 0 001.049-.587 12.81 12.81 0 001.351-1.056l2.828-2.496zM219.455 53.989l-1.123.971-3.217-3.722 1.124-.971 3.216 3.722zm3.059-8.324l-6.992 6.044-1.246-1.441 6.993-6.043 1.245 1.44zm-.457 5.228l-1.095.946-2.797-3.237 1.095-.946 2.797 3.237zm3.263-1.981l-1.129.975-3.212-3.717 1.128-.975 3.213 3.717zM227.592 59.126l-.35.263c-.562.422-1.124.724-1.685.906a4.158 4.158 0 01-1.626.212 3.494 3.494 0 01-1.463-.458 3.969 3.969 0 01-1.205-1.088 3.997 3.997 0 01-.707-1.461 3.567 3.567 0 01-.03-1.532 4.182 4.182 0 01.651-1.512c.333-.488.78-.942 1.342-1.364l.35-.263c.566-.424 1.127-.726 1.685-.906a4.158 4.158 0 011.626-.212 3.536 3.536 0 011.468.455c.455.261.857.624 1.205 1.087.35.468.586.955.707 1.462.123.51.132 1.022.025 1.536a4.095 4.095 0 01-.655 1.507c-.327.488-.773.944-1.338 1.368zm-1.504-1.276l.36-.27a5.62 5.62 0 00.956-.884c.245-.294.416-.587.515-.878.1-.291.125-.575.077-.85a1.817 1.817 0 00-.357-.804 1.814 1.814 0 00-.672-.568 1.71 1.71 0 00-.834-.16 2.905 2.905 0 00-.984.254 5.635 5.635 0 00-1.116.67l-.36.27a5.68 5.68 0 00-.956.884 2.888 2.888 0 00-.521.883 1.753 1.753 0 00-.081.854c.045.279.164.547.357.804.193.257.417.446.672.567.254.121.534.173.839.156.308-.019.637-.105.989-.257a5.706 5.706 0 001.116-.67zM236.258 73.503l-.384.212c-.615.34-1.213.56-1.794.663a4.162 4.162 0 01-1.64-.016 3.497 3.497 0 01-1.385-.657 3.97 3.97 0 01-1.042-1.245 4.002 4.002 0 01-.497-1.545 3.581 3.581 0 01.183-1.522c.175-.497.46-.966.855-1.406.397-.437.903-.825 1.518-1.164l.384-.212c.619-.341 1.217-.562 1.794-.663a4.16 4.16 0 011.64.016c.514.117.978.335 1.39.654.415.322.762.737 1.042 1.245.282.51.448 1.026.497 1.545a3.452 3.452 0 01-.188 1.525 4.105 4.105 0 01-.858 1.4c-.391.44-.897.829-1.515 1.17zm-1.313-1.472l.395-.218c.43-.237.786-.484 1.069-.742.283-.258.494-.524.633-.799.138-.274.203-.551.193-.831a1.81 1.81 0 00-.241-.846 1.825 1.825 0 00-.586-.655 1.718 1.718 0 00-.804-.274 2.896 2.896 0 00-1.01.115 5.615 5.615 0 00-1.198.508l-.395.218a5.675 5.675 0 00-1.069.742 2.88 2.88 0 00-.638.802 1.746 1.746 0 00-.199.834c.005.282.086.564.241.846.156.281.351.5.586.655.236.155.506.246.81.271.308.024.646-.016 1.015-.117a5.655 5.655 0 001.198-.51zM242.607 76.649l-8.386 3.884-.798-1.722 8.387-3.884.797 1.722zm1.195 2.58l-1.353.627-3.169-6.843 1.353-.626 3.169 6.843zM241.073 85.442l-.509-1.341.943-.359.406 1.069c.118.312.262.547.431.705.172.156.365.246.577.27.213.023.44-.01.681-.102a1.086 1.086 0 00.709-.976c.024-.248-.026-.535-.149-.86a1.8 1.8 0 00-.385-.62 1.247 1.247 0 00-.551-.342.96.96 0 00-.631.036l-.674-1.774c.38-.144.751-.192 1.114-.144.367.05.71.178 1.028.384.323.207.611.478.865.812.253.334.459.708.616 1.124.185.486.298.946.34 1.378.046.43.019.826-.08 1.185a2.217 2.217 0 01-.52.937 2.538 2.538 0 01-.977.629 1.925 1.925 0 01-.913.115 2.26 2.26 0 01-.907-.314 3.082 3.082 0 01-.809-.718 4.046 4.046 0 01-.605-1.094zm.007-1.537l.509 1.34a5.1 5.1 0 01.327 1.31c.041.405.014.77-.08 1.095a1.95 1.95 0 01-.485.85c-.226.24-.519.428-.879.564a2.412 2.412 0 01-1.169.159 2.419 2.419 0 01-1.059-.393 3.392 3.392 0 01-.893-.87 5.396 5.396 0 01-.673-1.271 5.158 5.158 0 01-.297-1.212 3.81 3.81 0 01.055-1.215 2.46 2.46 0 01.494-1.043c.246-.306.59-.543 1.033-.712l.678 1.787c-.21.08-.378.213-.506.402-.123.188-.195.41-.216.666-.016.255.029.523.136.804.125.329.282.588.472.778.191.195.398.317.622.369.228.053.451.039.669-.044a1.75 1.75 0 00.557-.32c.138-.125.236-.268.292-.43.06-.163.08-.345.058-.545a2.6 2.6 0 00-.165-.65l-.406-1.068.926-.352zM244.904 91.87l.581 2.078c.194.697.246 1.33.155 1.901-.09.574-.308 1.055-.653 1.44-.343.391-.794.664-1.353.82a2.947 2.947 0 01-1.226.092 2.704 2.704 0 01-1.093-.42 3.255 3.255 0 01-.884-.9 4.649 4.649 0 01-.602-1.354l-.915-3.277 8.902-2.485.514 1.84-7.471 2.086.401 1.436c.097.347.242.616.436.808.196.196.417.32.665.374.252.053.51.043.775-.031a1.43 1.43 0 00.637-.363 1.23 1.23 0 00.344-.656c.055-.261.034-.565-.063-.912l-.58-2.078 1.43-.4zm5.501 7.17l-8.901 2.485-.511-1.829 8.902-2.484.51 1.828zM246.565 106.249l-.436-2.334 1.283-.252.366 1.959c.065.345.161.62.29.824.133.203.294.343.485.42.196.079.418.096.668.049.283-.053.502-.149.656-.29a.91.91 0 00.289-.564c.038-.236.024-.528-.041-.877l-.243-1.298-7.619 1.423-.349-1.872 9.085-1.697.592 3.17c.099.528.137 1.01.115 1.444a3.16 3.16 0 01-.256 1.152c-.15.33-.366.6-.65.812-.279.212-.63.357-1.055.436-.374.07-.735.05-1.083-.062-.347-.107-.655-.323-.922-.648-.266-.32-.464-.768-.593-1.342l-.582-.453zm-4.002.663l-.516-2.764 1.596.458.38 2.034c.061.328.164.587.306.776.147.187.322.314.523.38.202.065.421.076.659.032.266-.05.488-.139.667-.267a.946.946 0 00.37-.508c.071-.216.077-.484.017-.804l-.337-1.803 1.288-.228.42 2.246-.425.525c.111.552.097 1.015-.044 1.39-.136.379-.35.675-.641.889-.291.217-.62.361-.986.429-.582.109-1.097.073-1.543-.106-.443-.18-.81-.496-1.101-.95-.291-.449-.502-1.026-.633-1.729zM248.286 115.503l1.85 1.231.39-2.061 1.146.28-.608 2.043 2.196-.317.109 1.227-2.263.067.95 1.866-1.099.473-.75-1.991-1.569 1.49-.784-.93 1.743-1.328-1.893-.998.582-1.052z"/>
</svg>
