<?xml version="1.0" encoding="utf-8"?>
<!-- Generator: Adobe Illustrator 15.1.0, SVG Export Plug-In . SVG Version: 6.00 Build 0)  -->
<!DOCTYPE svg PUBLIC "-//W3C//DTD SVG 1.1//EN" "http://www.w3.org/Graphics/SVG/1.1/DTD/svg11.dtd">
<svg version="1.1" id="Слой_1" xmlns="http://www.w3.org/2000/svg" xmlns:xlink="http://www.w3.org/1999/xlink" x="0px" y="0px"
	 width="80px" height="80px" viewBox="0 0 80 80" enable-background="new 0 0 80 80" xml:space="preserve">
<path d="M77.333,62.834h-3.5v-8.501c0-1.381-1.119-2.5-2.5-2.5H42.166V45h9.001c1.381,0,2.5-1.119,2.5-2.5V28
	c0-1.381-1.119-2.5-2.5-2.5h-9.001v-5.833h9.001c1.381,0,2.5-1.119,2.5-2.5v-14.5c0-1.381-1.119-2.5-2.5-2.5H28.833
	c-1.381,0-2.5,1.119-2.5,2.5v14.5c0,1.381,1.119,2.5,2.5,2.5h8.333V25.5h-8.333c-1.381,0-2.5,1.119-2.5,2.5v14.5
	c0,1.381,1.119,2.5,2.5,2.5h8.333v6.833h-29c-1.381,0-2.5,1.119-2.5,2.5v8.501H2.333c-1.381,0-2.5,1.119-2.5,2.5v12.333
	c0,1.381,1.119,2.5,2.5,2.5h12.333c1.381,0,2.5-1.119,2.5-2.5V65.334c0-1.381-1.119-2.5-2.5-2.5h-4v-6.001h26.5v6.001h-3.5
	c-1.381,0-2.5,1.119-2.5,2.5v12.333c0,1.381,1.119,2.5,2.5,2.5H46c1.381,0,2.5-1.119,2.5-2.5V65.334c0-1.381-1.119-2.5-2.5-2.5
	h-3.834v-6.001h26.667v6.001H65c-1.381,0-2.5,1.119-2.5,2.5v12.333c0,1.381,1.119,2.5,2.5,2.5h12.333c1.381,0,2.5-1.119,2.5-2.5
	V65.334C79.833,63.953,78.714,62.834,77.333,62.834z M31.333,5.167h17.333v9.5H31.333V5.167z M31.333,30.5h17.333V40H31.333V30.5z
	 M12.167,75.167H4.833v-7.333h7.333V75.167z M43.5,75.167h-7.333v-7.333H43.5V75.167z M74.833,75.167H67.5v-7.333h7.333V75.167z"/>
</svg>
