<?xml version="1.0" encoding="utf-8"?>
<!-- Generator: Adobe Illustrator 15.1.0, SVG Export Plug-In . SVG Version: 6.00 Build 0)  -->
<!DOCTYPE svg PUBLIC "-//W3C//DTD SVG 1.1//EN" "http://www.w3.org/Graphics/SVG/1.1/DTD/svg11.dtd">
<svg version="1.1" id="Слой_1" xmlns="http://www.w3.org/2000/svg" xmlns:xlink="http://www.w3.org/1999/xlink" x="0px" y="0px"
	 width="80px" height="80px" viewBox="0 0 80 80" enable-background="new 0 0 80 80" xml:space="preserve">
<path d="M77.5,37.167h-21v-3.833h16.167c1.381,0,2.5-1.119,2.5-2.5v-28.5c0-1.381-1.119-2.5-2.5-2.5H35.5
	c-1.381,0-2.5,1.119-2.5,2.5v8.561c-2.186-1.096-4.643-1.728-7.25-1.728c-8.96,0-16.25,7.29-16.25,16.25v12.417H2.333
	c-1.381,0-2.5,1.119-2.5,2.5V77.5c0,1.381,1.119,2.5,2.5,2.5s2.5-1.119,2.5-2.5V42.833h4.809c0.104,0.786,0.263,1.571,0.483,2.349
	C10.431,46.258,11.413,47,12.531,47h10.582l-0.07,2.667h-7.374c-4.505,0-8.169,3.665-8.169,8.169v5.831c0,1.381,1.119,2.5,2.5,2.5
	h13.167V75H19.5c-1.381,0-2.5,1.119-2.5,2.5s1.119,2.5,2.5,2.5h12.667c1.381,0,2.5-1.119,2.5-2.5s-1.119-2.5-2.5-2.5h-4v-8.833
	h14.167c1.381,0,2.5-1.119,2.5-2.5v-5.831c0-4.504-3.665-8.169-8.169-8.169h-8.619L28.115,47h10.854
	c1.118,0,2.101-0.742,2.405-1.818c0.282-0.997,0.463-2.007,0.554-3.016H46.5v35.501c0,1.381,1.119,2.5,2.5,2.5s2.5-1.119,2.5-2.5
	V70.5H75v7.167c0,1.381,1.119,2.5,2.5,2.5s2.5-1.119,2.5-2.5v-38C80,38.286,78.881,37.167,77.5,37.167z M39.833,57.836v3.331H12.5
	v-3.331c0-1.747,1.422-3.169,3.169-3.169h20.994C38.411,54.667,39.833,56.089,39.833,57.836z M51.5,37.167H42v-3.833h9.5V37.167z
	 M38,4.833h32.167v23.5H42v-2.917c0-4.077-1.521-7.798-4.01-10.654c0.001-0.033,0.01-0.063,0.01-0.096V4.833z M37,40.75
	c0,0.414-0.024,0.832-0.073,1.25H14.573c-0.049-0.418-0.073-0.836-0.073-1.25V25.417c0-6.203,5.047-11.25,11.25-11.25
	S37,19.213,37,25.417V40.75z M75,42.166v9.167H51.5v-9.167H75z M51.5,65.5v-9.167H75V65.5H51.5z"/>
</svg>
