<?xml version="1.0" encoding="utf-8"?>
<!-- Generator: Adobe Illustrator 15.1.0, SVG Export Plug-In . SVG Version: 6.00 Build 0)  -->
<!DOCTYPE svg PUBLIC "-//W3C//DTD SVG 1.1//EN" "http://www.w3.org/Graphics/SVG/1.1/DTD/svg11.dtd">
<svg version="1.1" id="Слой_1" xmlns="http://www.w3.org/2000/svg" xmlns:xlink="http://www.w3.org/1999/xlink" x="0px" y="0px"
	 width="81px" height="80px" viewBox="0 0 81 85" enable-background="new 0 0 81 80" xml:space="preserve">
  <defs>
    <linearGradient id="grad2" x1="0%" y1="0%" x2="0%" y2="100%">
      <stop offset="0%" style="stop-color:#3a79e3;stop-opacity:1" />
      <stop offset="100%" style="stop-color:#36a1fa;stop-opacity:1" />
    </linearGradient>
  </defs>
<g fill="url(#grad2)">
	<path d="M20.625,27.5c17-4.25,34.125,0.125,44.5-5.25c5.26-2.725,7.241-4.004,8.357-5.239c-2.476-3.469-5.478-6.536-8.899-9.071
		c-6.642,9.631-12.033,9.974-38.833,10.185C12.402,18.23,5.231,23.642,1.397,29.949C0.491,33.314,0,36.849,0,40.5
		c0,0.37,0.018,0.735,0.028,1.103C3.003,37.175,9.328,30.324,20.625,27.5z"/>
	<path d="M33.375,43.625c24.5-1.75,37.625-1.5,43.375-7.5c1.355-1.414,2.445-2.825,3.339-4.169
		c-0.856-3.988-2.301-7.757-4.237-11.214C74.107,22.991,63.92,34.816,42.875,34.25c-22.368-0.602-37.904,8.282-42.39,12.519
		c0.738,4.748,2.303,9.221,4.539,13.271C7.419,55.24,14.681,44.96,33.375,43.625z"/>
	<path d="M40.375,61c17.864-1.026,29.647-0.458,36.685-3.06C79.584,52.658,81,46.745,81,40.5c0-0.112-0.008-0.223-0.009-0.335
		c-3.649,2.626-14.087,9.382-25.741,10.085c-13.556,0.818-38.797,2.294-47.748,13.718c2.053,2.882,4.466,5.489,7.187,7.741
		C17.425,68.284,24.58,61.908,40.375,61z"/>
	<path d="M56.375,68.75c-19.739-0.61-30.119,2.755-34.713,7.601C27.291,79.314,33.697,81,40.5,81
		c12.677,0,23.989-5.828,31.415-14.946C67.898,67.779,62.758,68.947,56.375,68.75z"/>
	<path d="M37.25,8c10.506,1.174,17.406-1.17,21.564-3.619C53.313,1.585,47.094,0,40.5,0C29.625,0,19.759,4.295,12.483,11.27
		C19.479,8.548,28.045,6.972,37.25,8z"/>
</g>
</svg>
