<?xml version="1.0" encoding="utf-8"?>
<!-- Generator: Adobe Illustrator 15.1.0, SVG Export Plug-In . SVG Version: 6.00 Build 0)  -->
<!DOCTYPE svg PUBLIC "-//W3C//DTD SVG 1.1//EN" "http://www.w3.org/Graphics/SVG/1.1/DTD/svg11.dtd">
<svg version="1.1" id="Слой_1" xmlns="http://www.w3.org/2000/svg" xmlns:xlink="http://www.w3.org/1999/xlink" x="0px" y="0px"
	 width="42px" height="50px" viewBox="0 0 42 50" enable-background="new 0 0 42 50" xml:space="preserve">
<g>
	<path d="M40.583,7.583h-4.416V1.552c0-0.829-0.672-1.5-1.5-1.5H5.319c-2.904,0-5.266,2.362-5.266,5.266
		c0,0.19,0.01,0.377,0.03,0.562V42.25c0,5.964,4.604,7.677,7.083,7.75h33.417c0.828,0,1.5-0.672,1.5-1.5V9.083
		C42.083,8.255,41.411,7.583,40.583,7.583z M5.319,3.052h27.848v0.782H5.833c-0.829,0-1.5,0.671-1.5,1.5s0.671,1.5,1.5,1.5h27.333
		v0.75H5.319c-1.125,0-2.06-0.823-2.236-1.898V5.25c0-0.069-0.005-0.137-0.014-0.203C3.204,3.924,4.162,3.052,5.319,3.052z
		 M3.083,42.25V10.085c0.679,0.32,1.437,0.499,2.236,0.499H6v36.191C4.751,46.374,3.083,45.275,3.083,42.25z M39.083,47L9,47.001
		V10.583h30.083V47z"/>
	<path d="M14.667,18h18.667c0.828,0,1.5-0.671,1.5-1.5s-0.672-1.5-1.5-1.5H14.667c-0.829,0-1.5,0.671-1.5,1.5S13.838,18,14.667,18z"
		/>
	<path d="M33.5,19.75H14.917c-0.829,0-1.5,0.671-1.5,1.5v8.417c0,0.828,0.671,1.5,1.5,1.5H33.5c0.828,0,1.5-0.672,1.5-1.5V21.25
		C35,20.421,34.328,19.75,33.5,19.75z M32,28.167H16.417V22.75H32V28.167z"/>
</g>
</svg>
