<?xml version="1.0" encoding="utf-8"?>
<!-- Generator: Adobe Illustrator 15.1.0, SVG Export Plug-In . SVG Version: 6.00 Build 0)  -->
<!DOCTYPE svg PUBLIC "-//W3C//DTD SVG 1.1//EN" "http://www.w3.org/Graphics/SVG/1.1/DTD/svg11.dtd">
<svg version="1.1" id="Слой_1" xmlns="http://www.w3.org/2000/svg" xmlns:xlink="http://www.w3.org/1999/xlink" x="0px" y="0px"
	 width="50px" height="46px" viewBox="0 0 50 46" enable-background="new 0 0 50 46" xml:space="preserve">
<g>
	<path d="M42.999,17.56C40.3,11.549,34.756,7.292,28.355,6.15c0.803-0.927,2.007-1.748,3.812-2.213
		C33.236,3.661,33.88,2.57,33.604,1.5c-0.275-1.069-1.363-1.715-2.437-1.437c-3.998,1.032-6.2,3.373-7.333,5.811
		C16.446,6.284,9.835,10.84,6.818,17.598c-3.625,0.587-6.401,3.739-6.401,7.527c0,3.623,2.5,6.649,5.906,7.426
		C9.175,40.237,16.641,45.5,24.917,45.5c8.253,0,15.702-5.235,18.57-12.888c3.516-0.678,6.179-3.777,6.179-7.487
		C49.666,21.245,46.753,18.032,42.999,17.56z M42.084,28.75c-0.027-0.001-0.055-0.002-0.079-0.002c-0.886,0-1.665,0.582-1.917,1.431
		C38.108,36.845,31.87,41.5,24.917,41.5c-6.957,0-13.196-4.658-15.173-11.329C9.5,29.349,8.759,28.773,7.902,28.74
		c-1.955-0.074-3.486-1.662-3.486-3.615c0-1.999,1.626-3.625,3.577-3.625c0.027,0.001,0.123,0.007,0.15,0.007
		c0.894,0.025,1.635-0.502,1.932-1.307c2.039-5.53,7.006-9.433,12.732-10.214c-0.034,0.617-0.019,1.189,0.042,1.676
		c0.125,1.012,0.985,1.748,1.98,1.748c0.078,0,0.156-0.004,0.236-0.014c1.092-0.127,1.875-1.119,1.756-2.211
		c-0.017-0.15-0.053-0.607-0.002-1.224c5.818,0.714,10.883,4.646,12.944,10.25c0.309,0.838,1.172,1.365,2.058,1.302
		c0.073-0.005,0.146-0.013,0.221-0.013c1.999,0,3.625,1.626,3.625,3.625C45.666,27.109,44.063,28.727,42.084,28.75z"/>
	<circle cx="18.416" cy="25.563" r="3.208"/>
	<circle cx="31.791" cy="25.563" r="3.208"/>
</g>
</svg>
