<?xml version="1.0" encoding="utf-8"?>
<!-- Generator: Adobe Illustrator 15.1.0, SVG Export Plug-In . SVG Version: 6.00 Build 0)  -->
<!DOCTYPE svg PUBLIC "-//W3C//DTD SVG 1.1//EN" "http://www.w3.org/Graphics/SVG/1.1/DTD/svg11.dtd">
<svg version="1.1" id="Слой_1" xmlns="http://www.w3.org/2000/svg" xmlns:xlink="http://www.w3.org/1999/xlink" x="0px" y="0px"
	 width="50px" height="42px" viewBox="0 0 50 42" enable-background="new 0 0 50 42" xml:space="preserve">
<path d="M48.429,15.177L24.748,0.483L1.209,15.177l7.666,4.414v12.963l0.118,0.279c0.153,0.364,3.904,8.917,16.257,8.917
	c12.376,0,15.876-8.462,16.02-8.821l0.105-0.267V19.214L48.429,15.177z M24.752,4.017l17.819,11.056L24.752,25.271L7.041,15.073
	L24.752,4.017z M38.375,32.051c-0.609,1.237-3.826,6.699-13.125,6.699c-9.317,0-12.723-5.574-13.375-6.839V21.318l12.873,7.412
	l13.627-7.799V32.051z"/>
</svg>
