<?xml version="1.0" encoding="utf-8"?>
<!-- Generator: Adobe Illustrator 15.1.0, SVG Export Plug-In . SVG Version: 6.00 Build 0)  -->
<!DOCTYPE svg PUBLIC "-//W3C//DTD SVG 1.1//EN" "http://www.w3.org/Graphics/SVG/1.1/DTD/svg11.dtd">
<svg version="1.1" id="Слой_1" xmlns="http://www.w3.org/2000/svg" xmlns:xlink="http://www.w3.org/1999/xlink" x="0px" y="0px"
	 width="82px" height="82px" viewBox="0 0 82 82" enable-background="new 0 0 82 82" xml:space="preserve">
<g>
	<path d="M76.29,32.521h-0.921c-0.833-3.279-2.131-6.405-3.873-9.329l0.657-0.657c1.182-1.182,1.832-2.752,1.832-4.422
		c-0.001-1.669-0.651-3.239-1.832-4.419l-3.533-3.534c-1.181-1.181-2.75-1.832-4.42-1.832s-3.24,0.65-4.421,1.832l-0.658,0.658
		c-2.924-1.742-6.05-3.04-9.329-3.874v-0.92c0-3.447-2.805-6.252-6.252-6.252h-4.997c-3.447,0-6.252,2.805-6.252,6.252v0.921
		c-3.279,0.833-6.405,2.131-9.329,3.873l-0.658-0.658c-1.181-1.181-2.75-1.831-4.421-1.831c-1.67,0-3.24,0.65-4.42,1.831
		l-3.533,3.533c-2.438,2.437-2.438,6.403,0,8.841l0.658,0.658c-1.742,2.924-3.04,6.05-3.873,9.329H5.794
		c-3.447,0-6.252,2.805-6.252,6.252v4.997c0,3.447,2.805,6.252,6.252,6.252h0.921c0.833,3.278,2.131,6.405,3.874,9.328l-0.658,0.658
		c-2.438,2.437-2.438,6.402,0,8.841l3.533,3.533c1.181,1.181,2.75,1.831,4.42,1.831c1.67,0,3.24-0.65,4.421-1.831l0.658-0.657
		c2.923,1.742,6.05,3.04,9.328,3.873v0.921c0,3.447,2.805,6.252,6.252,6.252h4.997c3.447,0,6.252-2.805,6.252-6.252v-0.921
		c3.278-0.833,6.405-2.131,9.328-3.873l0.658,0.657c1.181,1.182,2.751,1.832,4.421,1.832s3.24-0.65,4.421-1.832l3.533-3.533
		c2.438-2.438,2.438-6.403,0-8.841l-0.657-0.658c1.742-2.923,3.04-6.05,3.873-9.328h0.921c3.447,0,6.252-2.805,6.252-6.252v-4.997
		C82.542,35.325,79.737,32.521,76.29,32.521z M78.542,43.77c0,1.242-1.01,2.252-2.252,2.252h-2.514
		c-0.949,0-1.769,0.668-1.959,1.598c-0.8,3.896-2.324,7.569-4.532,10.918c-0.522,0.792-0.416,1.844,0.256,2.515l1.784,1.784
		c0.878,0.878,0.878,2.307,0,3.185l-3.533,3.533c-0.852,0.852-2.334,0.852-3.186,0l-1.784-1.784
		c-0.672-0.672-1.723-0.777-2.515-0.256c-3.349,2.208-7.022,3.732-10.918,4.532c-0.93,0.19-1.598,1.01-1.598,1.959v2.514
		c0,1.242-1.01,2.252-2.252,2.252h-4.997c-1.242,0-2.252-1.01-2.252-2.252v-2.514c0-0.949-0.668-1.769-1.598-1.959
		c-3.895-0.8-7.568-2.324-10.917-4.532c-0.336-0.222-0.72-0.33-1.101-0.33c-0.516,0-1.028,0.199-1.415,0.586l-1.784,1.784
		c-0.85,0.85-2.334,0.85-3.185,0l-3.533-3.533c-0.878-0.878-0.878-2.307,0-3.185l1.784-1.784c0.671-0.671,0.778-1.723,0.256-2.515
		c-2.208-3.349-3.733-7.022-4.532-10.918c-0.19-0.93-1.009-1.598-1.959-1.598H5.794c-1.242,0-2.252-1.01-2.252-2.252v-4.997
		c0-1.242,1.01-2.252,2.252-2.252h2.514c0.95,0,1.769-0.668,1.959-1.598c0.799-3.895,2.324-7.568,4.532-10.917
		c0.522-0.792,0.416-1.843-0.256-2.515l-1.784-1.784c-0.878-0.878-0.878-2.307,0-3.185l3.533-3.533c0.851-0.851,2.334-0.851,3.185,0
		l1.784,1.784c0.671,0.672,1.722,0.777,2.515,0.256c3.349-2.208,7.022-3.733,10.917-4.532c0.93-0.19,1.598-1.009,1.598-1.959V6.023
		c0-1.242,1.01-2.252,2.252-2.252h4.997c1.242,0,2.252,1.01,2.252,2.252v2.513c0,0.95,0.668,1.769,1.598,1.959
		c3.896,0.799,7.569,2.324,10.919,4.533c0.793,0.523,1.845,0.417,2.515-0.256l1.784-1.785c0.852-0.849,2.333-0.851,3.185,0
		l3.533,3.534c0.426,0.426,0.66,0.991,0.66,1.592c0,0.602-0.234,1.167-0.66,1.593l-1.784,1.784
		c-0.672,0.671-0.778,1.722-0.256,2.515c2.208,3.348,3.732,7.021,4.532,10.917c0.19,0.93,1.01,1.598,1.959,1.598h2.514
		c1.242,0,2.252,1.01,2.252,2.252V43.77z"/>
	<path d="M41.042,17.188c-13.28,0-24.083,10.804-24.083,24.083s10.804,24.083,24.083,24.083s24.083-10.804,24.083-24.083
		S54.322,17.188,41.042,17.188z M38,61.099V49.167c0-0.586-0.26-1.146-0.707-1.525c-0.052-0.044-5.198-4.489-5.096-9.728
		c0.03-1.534,0.522-3.022,1.469-4.453v3.205c0,0.53,0.21,1.039,0.586,1.414l4.833,4.833c0.458,0.458,1.082,0.64,1.679,0.561
		c0.596,0.079,1.221-0.103,1.679-0.561l4.833-4.833c0.375-0.375,0.586-0.884,0.586-1.414v-3.205c0.947,1.43,1.439,2.918,1.469,4.453
		c0.103,5.238-5.043,9.684-5.092,9.725c-0.45,0.38-0.71,0.939-0.71,1.528v12.017c-0.816,0.102-1.643,0.171-2.487,0.171
		C40.006,61.354,38.995,61.251,38,61.099z M47.529,60.259V50.041c1.716-1.676,5.902-6.368,5.802-12.179
		c-0.07-4.057-2.167-7.736-6.232-10.934c-0.603-0.474-1.423-0.561-2.11-0.227c-0.688,0.334-1.126,1.033-1.126,1.799v7.338
		l-3.098,3.098l-3.098-3.098V28.5c0-0.766-0.438-1.464-1.126-1.799c-0.69-0.336-1.509-0.247-2.11,0.227
		c-4.065,3.198-6.162,6.877-6.232,10.934C28.098,43.673,32.284,48.365,34,50.041v10.014c-7.605-2.861-13.041-10.19-13.041-18.784
		c0-11.074,9.009-20.083,20.083-20.083c11.074,0,20.083,9.009,20.083,20.083C61.126,50.072,55.426,57.553,47.529,60.259z"/>
</g>
</svg>
